<?xml version="1.0" encoding="UTF-8" standalone="no" ?>
<!DOCTYPE svg PUBLIC "-//W3C//DTD SVG 1.1//EN" "http://www.w3.org/Graphics/SVG/1.1/DTD/svg11.dtd">
<svg xmlns="http://www.w3.org/2000/svg" xmlns:xlink="http://www.w3.org/1999/xlink" version="1.1" width="150" height="150" viewBox="0 0 150 150" xml:space="preserve">
<!-- Created with SVG Stack Editor - https://svgstack.com -->
<defs>
</defs>
<rect x="0" y="0" width="100%" height="100%" fill="transparent"></rect>
<g transform="matrix(1.49 0 0 1.49 75 75)"  >
<g style=""   >
		<g transform="matrix(1 0 0 1 0 0)" id="path_0"  >
<path style="stroke: none; stroke-width: 1; stroke-dasharray: none; stroke-linecap: butt; stroke-dashoffset: 0; stroke-linejoin: miter; stroke-miterlimit: 4; fill: rgb(0,0,0); fill-rule: nonzero; opacity: 1;"  transform=" translate(-50, -49.6)" d="M 29.883 84.4345 C 26.0736 81.438 22.0099 78.565 19.2332 74.5202 C 13.3899 67.3863 8.89099 59.1272 5.81501 50.4475 C 3.95635 44.8041 3.3197 38.7531 0.923266 33.3272 C -1.58355 29.3865 1.35275 25.0786 5.66958 23.8262 C 7.59102 23.4574 10.9704 21.6448 6.8916 22.94 C 3.23496 25.6237 2.8808 20.5049 6.63004 20.1805 C 9.18969 19.8405 10.1318 17.7454 9.25613 15.8595 C 6.50972 14.0678 15.9181 12.0993 11.1838 9.42613 C 6.25234 4.10594 18.0823 3.08166 15.1633 9.12376 C 14.4649 13.7702 23.4297 8.27211 21.3497 13.6383 C 23.4632 16.2147 29.2662 14.2242 29.1223 17.839 C 32.202 18.0509 33.2592 20.6425 36.15 20.8412 C 39.1465 22.1946 44.5776 23.2607 45.5977 26.6375 C 42.6247 28.9905 35.7415 21.7756 35.4108 28.2906 C 36.3085 37.914 36.0799 47.8272 39.6011 56.9913 C 41.2662 62.5406 45.3031 66.9087 48.9493 71.2308 C 52.4386 75.4634 57.164 78.4431 61.9804 80.952 C 66.2051 82.9451 70.76 84.2666 75.3645 85.0952 C 77.2321 83.6671 80.5294 78.3563 83.4432 80.5958 C 83.5813 83.112 77.6605 85.8558 83.1643 85.5775 C 86.3962 84.6029 88.6383 88.077 91.2995 84.943 C 93.7514 87.8479 101.491 83.0874 99.7464 89.0244 C 97.3871 90.5467 93.9465 89.6265 91.5835 91.7206 C 87.6878 89.7745 84.5857 93.4615 80.2725 92.9954 C 75.4828 93.8534 70.6099 94.1997 65.7532 94.207 C 57.7865 93.5777 49.6508 93.3124 42.0713 90.5383 C 37.8026 89.298 33.6353 86.8665 29.883 84.4345 Z M 36.6114 87.3499 C 40.7807 89.1525 44.8574 91.0531 49.4264 91.6259 C 56.6754 92.6345 64.1608 94.185 71.4359 92.7705 C 68.1433 91.2838 64.7393 93.3496 61.4593 91.7075 C 57.5254 92.5539 53.3038 91.492 49.304 90.9688 C 44.7559 88.9428 39.848 87.5497 35.5887 84.9205 C 30.2669 82.9765 38.3414 87.4131 39.7784 87.7725 C 43.1055 89.661 36.1202 86.8048 35.1351 86.0195 C 32.349 84.4564 31.9938 84.7829 34.8595 86.37 C 35.4365 86.708 36.0061 87.0621 36.6114 87.3499 Z M 28.6782 81.7435 C 32.7183 83.2397 28.6604 78.9029 26.8096 79.1541 C 25.9893 77.7311 23.6761 76.8324 25.3077 76.0681 C 22.3719 77.0872 22.2323 72.1928 20.8528 72.8922 C 17.747 71.9114 19.6444 68.4378 15.9448 66.3045 C 15.6069 64.0566 12.2693 62.107 11.2053 58.7166 C 10.7345 56.9803 7.43356 51.9955 9.46172 56.6345 C 11.188 61.101 14.2253 64.9261 16.753 68.7459 C 18.7158 72.3832 21.0338 76.1848 24.6083 78.4541 C 25.8136 79.6102 26.977 81.381 28.6782 81.7435 Z M 17.0402 68.9657 C 17.1815 68.3552 17.7789 70.286 17.0402 68.9657 L 17.0402 68.9657 Z M 33.5166 83.5373 C 32.2302 83.0325 34.4111 83.1366 33.5166 83.5373 L 33.5166 83.5373 Z M 35.7095 84.3377 C 34.7088 84.955 35.4825 83.2329 35.7095 84.3377 L 35.7095 84.3377 Z M 38.4549 85.4823 C 36.4409 84.6976 39.7617 84.2378 38.4549 85.4823 L 38.4549 85.4823 Z M 43.1599 88.1047 C 40.618 87.6616 43.954 86.9308 43.1599 88.1047 L 43.1599 88.1047 Z M 34.1255 81.8063 C 31.5031 81.7885 36.1552 80.4932 34.1255 81.8063 L 34.1255 81.8063 Z M 36.1845 82.8332 C 35.4506 83.1444 36.127 82.139 36.1845 82.8332 L 36.1845 82.8332 Z M 46.4765 89.2572 C 48.1312 90.3018 56.1386 91.5458 51.1245 89.6856 C 50.2854 89.8624 41.8275 87.2934 46.4765 89.2572 Z M 30.1372 76.5316 C 27.5687 75.7626 29.9766 75.8359 30.1372 76.5316 L 30.1372 76.5316 Z M 34.929 79.3241 C 32.3406 78.6534 36.1756 78.4546 34.929 79.3241 L 34.929 79.3241 Z M 38.9592 81.7953 C 36.0558 81.1179 40.7483 81.1205 38.9592 81.7953 L 38.9592 81.7953 Z M 28.188 74.4088 C 30.1288 75.8971 36.0177 74.5992 31.161 73.5195 C 28.9502 72.3414 23.9685 71.5347 27.3641 74.2299 L 28.1875 74.4082 L 28.188 74.4088 Z M 41.6889 82.6485 C 38.2974 81.8617 42.4976 81.2706 41.6889 82.6485 L 41.6889 82.6485 Z M 37.586 79.3884 C 42.3339 80.7313 33.594 76.3857 36.4147 78.8941 L 37.0398 79.1765 L 37.586 79.3884 Z M 45.8116 84.142 C 41.7506 83.5221 50.3079 84.1849 45.8116 84.142 L 45.8116 84.142 Z M 26.4575 71.8067 C 25.3485 71.8774 26.2818 70.9697 26.4575 71.8067 L 26.4575 71.8067 Z M 53.4173 88.4087 C 51.95 89.5339 53.5371 86.8958 53.4173 88.4087 L 53.4173 88.4087 Z M 34.1302 76.5055 C 32.7256 76.4725 33.8582 75.7087 34.1302 76.5055 L 34.1302 76.5055 Z M 26.8839 71.281 C 23.3502 70.1437 29.4655 71.1262 26.8839 71.281 L 26.8839 71.281 Z M 18.2994 65.7322 C 15.4907 63.5079 17.9782 64.495 18.2994 65.7322 L 18.2994 65.7322 Z M 40.8356 80.0345 C 40.3627 79.4951 40.6133 80.1522 40.8356 80.0345 L 40.8356 80.0345 Z M 54.8627 88.642 C 54.099 88.9538 54.8177 87.8181 54.8627 88.642 L 54.8627 88.642 Z M 39.5943 78.7523 C 37.393 78.4311 39.8469 77.6903 39.5943 78.7523 L 39.5943 78.7523 Z M 29.1443 72.1295 C 26.0683 70.8311 31.0642 71.9239 29.1443 72.1295 L 29.1443 72.1295 Z M 46.8212 83.1136 C 43.9048 82.535 49.8135 81.9282 46.8212 83.1136 L 46.8212 83.1136 Z M 37.6263 76.8722 C 41.0752 77.3168 33.5229 74.526 36.8698 76.6221 L 37.6263 76.8722 Z M 49.6132 84.2425 C 52.833 82.3174 51.7716 88.7503 55.0762 84.7865 C 58.3352 82.4063 52.2612 87.7286 56.2783 85.2103 C 59.1838 83.2674 63.4749 86.1315 66.1858 87.0658 C 68.1349 86.9701 70.0308 88.7518 72.0291 87.6679 C 75.8762 86.6321 64.5055 86.131 67.4863 84.2927 C 63.9656 85.317 61.3657 83.0712 59.6331 80.8165 C 55.6846 79.9047 51.1187 77.886 49.1481 74.3915 C 48.3446 73.0795 50.3094 74.5762 48.4544 72.4314 C 46.0753 70.3153 44.8867 67.9131 43.2901 65.3404 C 41.3818 64.3224 41.1595 61.3265 40.9664 65.24 C 40.9821 62.7703 38.6626 61.1073 38.0971 61.7988 C 38.0866 59.4197 40.5783 60.6124 38.8342 58.8521 C 38.4586 56.3866 37.2229 53.8175 36.851 51.034 C 36.2735 49.6921 36.7694 46.8181 34.8804 49.8559 C 34.1925 53.0663 34.6523 45.911 35.7226 48.2708 C 37.1272 45.8629 35.2178 46.1459 35.1399 46.4801 C 36.0553 44.4489 35.719 41.567 34.9008 42.6666 C 35.3889 40.5134 35.6713 34.7423 34.171 35.765 C 35.0807 33.5134 35.8958 25.4625 31.9477 28.5322 C 30.348 28.5547 27.5776 29.1129 26.2682 29.7642 C 30.3747 32.0278 25.8549 30.5818 24.1835 30.2219 C 23.9659 32.3165 22.3102 31.4105 20.2418 31.4309 C 23.5453 31.84 18.6332 34.8103 16.7379 33.6563 C 14.2766 34.8328 18.8618 37.7691 16.787 38.6767 C 17.0418 40.0457 13.0164 38.1829 13.3323 41.3436 C 10.9427 40.3387 13.0033 45.0933 14.1986 43.4853 C 18.2633 44.5854 17.0601 47.0927 17.1632 49.475 C 16.5014 50.8629 13.8936 46.2123 16.5825 46.4278 C 14.4618 42.982 14.2363 45.1823 12.4739 46.783 C 12.0637 46.8992 16.9696 49.0607 13.891 50.1295 C 16.5998 50.5474 16.6767 52.9177 17.2286 54.4175 C 18.856 56.113 18.5233 52.5447 20.4709 54.5828 C 19.2384 52.7676 13.9418 49.4677 18.2058 50.526 C 18.1833 48.6987 17.4347 47.2251 18.7414 47.2612 C 20.0351 44.9176 17.3865 53.0386 20.303 50.0599 C 21.1102 49.7078 21.31 47.7142 22.7617 50.2482 C 24.8688 52.3219 23.5228 53.8248 20.5494 51.9259 C 21.0814 53.7307 24.5267 54.3752 23.8791 57.1974 C 24.5659 59.6791 25.5259 58.7652 26.3629 58.6214 C 27.0199 61.033 27.3924 59.2596 27.4238 58.1124 C 30.4302 58.7558 29.726 60.5334 30.6671 61.7748 C 32.7387 62.7101 27.701 55.4361 31.2583 59.5881 C 35.0007 62.9664 32.6618 64.3768 29.3033 63.8359 C 31.4288 63.6632 32.1146 66.7089 34.7731 66.6022 C 37.1978 67.7551 38.8389 72.1855 34.6601 70.341 C 33.2111 69.0342 28.0813 67.4219 32.271 69.9078 C 36.1401 71.6995 39.2129 72.7719 42.9449 75.0208 C 45.616 76.9276 46.7695 79.1117 47.7817 79.5433 C 45.5375 80.6157 41.0177 78.6874 44.3735 78.0963 C 42.2805 77.7149 39.9259 76.6566 41.9305 79.2649 C 43.6359 80.6879 47.9716 80.5377 48.749 80.6983 C 48.0898 82.1505 46.9594 82.2656 48.7756 82.3786 C 46.7491 83.4583 49.4254 83.6257 49.6132 84.2425 Z M 45.4695 72.5402 C 44.2365 71.2512 43.9179 68.8359 45.2503 70.9373 C 45.934 71.212 47.4401 74.8838 45.4695 72.5402 Z M 58.9646 81.1126 C 58.9871 81.697 59.7336 81.0629 58.9646 81.1126 L 58.9646 81.1126 Z M 43.5224 69.3789 C 43.4753 67.4298 43.9686 70.8824 43.5224 69.3789 L 43.5224 69.3789 Z M 42.1816 67.5741 C 40.6306 64.5777 44.1366 68.4226 42.1816 67.5741 L 42.1816 67.5741 Z M 25.9271 56.3557 C 26.3754 57.9141 26.8379 56.113 25.9271 56.3557 L 25.9271 56.3557 Z M 38.8629 63.3677 C 39.4227 61.2663 39.5205 65.1306 38.8629 63.3677 L 38.8629 63.3677 Z M 29.7239 57.0128 C 29.08 55.8535 31.0715 58.1003 29.7239 57.0128 L 29.7239 57.0128 Z M 37.5672 59.5274 C 36.0982 56.2354 38.6071 57.7294 37.892 60.0662 L 37.5672 59.5274 Z M 24.0417 50.5072 C 23.3847 49.4269 22.2982 46.2583 22.6481 45.2916 C 22.9646 46.8662 25.9982 52.0708 24.1364 47.4469 C 22.0785 43.571 26.5956 48.705 27.0607 49.6717 C 27.2768 50.6338 25.7911 49.4091 26.7976 51.6638 C 24.9614 49.0968 25.7137 53.082 24.0417 50.5072 Z M 19.862 47.6268 C 20.0336 45.1158 20.8188 49.3484 19.862 47.6268 L 19.862 47.6268 Z M 21.7421 48.2739 C 22.6393 46.3787 23.2633 50.9157 21.7421 48.2739 L 21.7421 48.2739 Z M 17.2186 44.7748 C 15.6623 43.2284 14.5366 41.8034 17.2919 43.8153 C 18.3538 43.8567 14.9326 40.5735 17.5471 42.7728 C 20.2967 43.2739 18.9047 47.28 17.2186 44.7748 Z M 19.5947 44.713 C 20.0744 45.5945 20.4986 43.8174 19.5947 44.713 L 19.5947 44.713 Z M 21.0568 45.1818 C 19.6862 42.6132 22.7193 46.2583 21.0568 45.1818 L 21.0568 45.1818 Z M 18.1503 42.404 C 13.6263 38.378 23.8356 44.5095 18.8895 43.1505 L 18.1503 42.404 Z M 31.1134 49.9359 C 29.1553 48.762 30.5944 41.6716 31.2619 46.521 C 33.1651 45.9052 31.1568 49.0252 32.5765 48.9964 C 32.3526 50.9649 31.7176 51.6727 31.1128 49.9359 L 31.1134 49.9359 Z M 35.9078 52.7697 C 36.0998 50.6327 36.3117 54.2303 35.9078 52.7697 L 35.9078 52.7697 Z M 35.075 51.9468 C 35.097 53.0213 35.2905 51.034 35.075 51.9468 L 35.075 51.9468 Z M 19.0381 41.0815 C 16.1316 37.0712 27.485 45.1378 20.8993 42.0984 C 20.2114 41.9185 19.3833 41.8547 19.0381 41.0815 Z M 28.2707 45.9764 C 27.9955 42.5996 28.8848 46.5361 28.2707 45.9764 L 28.2707 45.9764 Z M 35.2806 50.4732 C 35.3209 51.7454 35.8231 48.5496 35.2806 50.4732 L 35.2806 50.4732 Z M 19.4832 39.5503 C 21.2106 39.1815 26.6422 42.5844 21.6542 40.5233 C 21.0997 39.9092 19.9185 40.1885 19.4832 39.5503 Z M 34.317 46.9447 C 34.5016 43.4921 35.3481 44.8825 34.3233 47.439 L 34.317 46.9447 Z M 20.7686 38.3497 C 21.4722 37.3176 18.9 33.6819 21.1395 37.0456 C 22.1072 37.8146 23.9408 38.3335 22.3217 38.6568 C 24.8683 40.9036 21.7008 39.2657 20.7686 38.3497 Z M 33.5836 45.866 C 34.0125 48.1704 34.0701 41.9331 33.5836 45.866 L 33.5836 45.866 Z M 19.2991 34.7166 C 19.5832 35.4333 19.8369 34.4865 19.2991 34.7166 L 19.2991 34.7166 Z M 22.6419 36.7061 C 23.5019 34.9013 24.2285 38.7191 22.6419 36.7061 L 22.6419 36.7061 Z M 32.0702 41.9509 C 32.0613 41.2578 32.248 42.9595 32.0702 41.9509 L 32.0702 41.9509 Z M 31.524 40.742 C 30.2152 37.5133 32.7413 42.4516 31.524 40.742 L 31.524 40.742 Z M 30.7205 38.6254 C 30.5008 37.2915 31.467 40.3015 30.7205 38.6254 L 30.7205 38.6254 Z M 32.0283 36.4994 C 31.1301 34.917 33.1624 29.5262 33.389 32.8689 C 32.4411 35.4746 33.1154 36.9321 33.7766 33.4376 C 34.9981 30.6875 33.5129 38.8645 32.0283 36.4994 Z M 33.3722 28.4815 C 33.4591 29.0611 33.7635 28.0013 33.3722 28.4815 L 33.3722 28.4815 Z M 31.128 72.7039 C 30.5955 72.2394 31.195 72.9995 31.128 72.7039 L 31.128 72.7039 Z M 35.7509 75.0423 C 38.3226 75.7025 38.3095 74.6421 35.9852 74.3277 C 34.735 73.1643 30.7906 71.9307 34.3217 74.1833 C 34.555 74.7755 35.2942 74.7619 35.7509 75.0423 Z M 26.6202 68.9777 C 28.0374 70.0344 31.9566 71.9721 28.6385 69.3805 C 29.7574 68.08 26.4973 67.3884 27.5786 66.519 C 24.828 64.8356 25.4087 64.9852 27.3359 65.0385 C 24.0297 63.5607 27.813 63.6711 27.6351 62.9141 C 26.3602 62.6625 21.3037 60.6663 24.2787 63.0779 C 21.2545 61.5362 23.5579 63.6523 22.644 63.4284 C 19.5512 62.5856 25.3977 65.784 22.1522 64.9899 C 23.9267 66.3961 26.9284 68.5911 22.9029 66.4777 C 22.3725 67.2414 25.7832 68.3981 26.6202 68.9777 Z M 31.4555 71.7555 C 28.5731 69.4412 37.3354 73.6502 31.4555 71.7555 L 31.4555 71.7555 Z M 56.2082 86.7509 C 55.4047 87.7459 56.2841 85.5843 56.2082 86.7509 L 56.2082 86.7509 Z M 58.7522 87.8217 C 60.1086 86.5071 58.8076 89.9153 61 87.5 C 61.0236 85.7705 60.932 84.7494 58.4807 86.8497 C 57.8048 87.2243 57.5024 88.8183 58.7522 87.8217 Z M 18.3679 62.4595 C 15.4478 60.83 17.951 60.8222 18.3679 62.4595 L 18.3679 62.4595 Z M 21.0845 64.2392 C 17.4854 62.7253 20.0754 62.5668 21.0845 64.2392 L 21.0845 64.2392 Z M 36.5392 73.5597 C 38.0479 74.9 43.4696 74.5432 38.3717 73.7251 C 37.6169 72.6087 33.5778 72.8776 36.5392 73.5597 Z M 57.7844 86.6808 C 55.5349 87.5502 60.1071 84.7321 57.7844 86.6808 L 57.7844 86.6808 Z M 62.6144 90 C 61.6137 90.2736 62.6291 89.3743 62.6144 90 L 62.6144 90 Z M 62.6217 89.1243 C 60.1301 89.2854 65.1934 86.3993 62.6217 89.1243 L 62.6217 89.1243 Z M 11.6866 56.8658 C 9.49468 53.738 10.3238 52.3324 8.2104 49.779 C 7.81021 47.8261 4.5841 43.3948 6.54163 48.0893 C 8.33491 50.8352 8.86745 55.0861 11.6866 56.8658 Z M 61.8156 88.2585 C 59.8738 86.9261 66.5473 85.2003 61.8156 88.2585 L 61.8156 88.2585 Z M 65.4273 89.673 C 63.929 89.2477 67.797 87.6386 65.4273 89.673 L 65.4273 89.673 Z M 17.5628 59.0022 C 15.8119 58.8735 18.2408 57.9936 17.5628 59.0022 L 17.5628 59.0022 Z M 64.6734 88.7068 C 66.9673 87.228 64.1451 87.455 64.2575 88.8429 L 64.6734 88.7068 Z M 33.5401 69.0834 C 32.3286 69.1686 33.4617 68.0847 33.5401 69.0834 L 33.5401 69.0834 Z M 35.4642 70.1908 C 34.5241 70.3849 34.8527 68.9547 35.4642 70.1908 L 35.4642 70.1908 Z M 68.3541 89.7065 C 71.2936 87.5863 66.5729 89.3006 67.7374 90.1083 L 68.3541 89.7065 Z M 67.2294 89.1625 C 64.7012 90.0518 69.6232 87.1563 67.2294 89.1625 L 67.2294 89.1625 Z M 72.9786 92.9918 C 71.0263 92.6434 74.5867 91.9152 72.9786 92.9918 L 72.9786 92.9918 Z M 19.0365 58.2751 C 21.1918 58.7579 27.6471 63.5816 23.8388 58.6088 C 21.8875 58.0313 23.0578 53.2625 21.0683 54.1068 C 22.4038 56.3379 22.1669 57.2874 19.3629 55.8807 C 15.8386 54.1607 17.3824 56.7334 18.0708 57.4422 C 17.1328 57.6557 19.3127 58.2573 19.0365 58.2751 Z M 9.22004 50.5218 C 9.60558 48.9263 5.66801 41.7438 7.36032 46.9227 C 7.97134 48.0077 7.90961 50.0636 9.22004 50.5218 Z M 27.238 61.6304 C 26.1285 60.7024 27.1857 61.4991 27.238 61.6304 L 27.238 61.6304 Z M 29.9703 62.266 C 26.9503 61.5796 29.9688 60.5763 29.9703 62.266 L 29.9703 62.266 Z M 53.6475 77.1928 C 51.8626 77.1656 53.1961 76.0378 53.6475 77.1928 L 53.6475 77.1928 Z M 54.7848 78.023 C 54.1288 78.1481 54.6174 77.377 54.7848 78.023 L 54.7848 78.023 Z M 64.1697 83.9344 C 63.0434 83.8491 65.0726 83.2679 64.1697 83.9344 L 64.1697 83.9344 Z M 14.1233 51.7742 C 11.3575 51.0612 16.7049 50.7745 14.1233 51.7742 L 14.1233 51.7742 Z M 51.5634 75.3619 C 49.9176 75.7762 51.5346 73.69 51.5634 75.3619 L 51.5634 75.3619 Z M 13.1032 49.3971 C 11.5694 49.0283 14.7615 48.8368 13.1032 49.3971 L 13.1032 49.3971 Z M 17.917 51.7287 C 17.408 51.9369 17.8867 51.1794 17.917 51.7287 L 17.917 51.7287 Z M 76.6274 87.7317 C 78.7602 87.2991 83.6195 88.8172 84.4052 87.1668 C 81.8157 87.1035 75.4451 85.339 75.1438 87.5873 L 75.7109 87.6763 L 76.6274 87.7317 Z M 19.4466 52.1142 C 18.1262 52.0514 19.4838 50.4209 19.4466 52.1142 L 19.4466 52.1142 Z M 6.79064 43.3351 C 4.6045 42.8465 6.21573 40.108 6.79064 43.3351 L 6.79064 43.3351 Z M 9.80907 44.0937 C 7.04645 43.1614 9.84569 43.0579 9.80907 44.0937 L 9.80907 44.0937 Z M 11.5333 44.9411 C 11.0348 44.5367 11.143 45.4506 11.5333 44.9411 L 11.5333 44.9411 Z M 22.3855 51.9023 C 21.1761 51.5545 22.8966 51.4331 22.3855 51.9023 L 22.3855 51.9023 Z M 10.385 43.0301 C 6.88899 42.665 10.0931 40.5929 10.385 43.0301 L 10.385 43.0301 Z M 4.19699 39.0157 C 3.59382 39.4394 4.10858 37.891 4.19699 39.0157 L 4.19699 39.0157 Z M 5.11716 38.3204 C 4.32724 38.4905 4.96703 36.9865 5.11716 38.3204 L 5.11716 38.3204 Z M 10.2019 41.3561 C 12.3525 40.5113 6.28583 39.6089 9.76252 41.1966 L 10.2019 41.3561 Z M 78.2595 83.394 C 76.5107 83.0037 79.6359 82.1322 78.2595 83.394 L 78.2595 83.394 Z M 86.4815 87.6559 C 85.0931 87.8704 87.0329 86.0243 86.4815 87.6559 L 86.4815 87.6559 Z M 10.723 38.6908 C 9.01759 39.0042 10.949 37.1125 10.723 38.6908 L 10.723 38.6908 Z M 3.4871 33.843 C 3.09842 31.615 3.15178 27.7041 6.86911 29.0261 C 1.90674 30.0111 10.3034 35.1937 9.24305 31.1018 C 11.3298 31.2038 13.325 29.8688 12.2301 31.8954 C 16.3413 31.4413 19.1913 27.8762 23.1624 28.3758 C 26.2556 27.9662 29.6376 27.656 32.971 26.411 C 35.7122 26.2132 38.3503 23.2628 36.8479 21.5135 C 33.1101 21.1975 29.1982 21.6652 25.0671 22.4865 C 20.4897 23.4375 16.3309 25.246 11.7127 26.0218 C 7.21071 26.6265 12.6177 27.6879 11.3288 27.9244 C 8.9794 28.7399 14.1301 29.2897 11.0238 30.1487 C 9.10547 29.7841 7.10922 29.1249 7.92844 27.1031 C 3.61579 27.6628 -0.173728 29.4524 3.23339 33.8409 L 3.4871 33.843 Z M 13.8785 28.5511 C 14.8897 24.8264 19.2954 31.6161 15.5357 29.0454 C 15.0869 28.7096 14.3482 28.4355 13.8785 28.5511 Z M 14.0752 26.7447 C 14.851 27.3547 15.5347 25.6577 14.0752 26.7447 L 14.0752 26.7447 Z M 15.9281 26.7745 C 16.0599 25.0603 20.1706 27.6816 16.606 27.3918 L 15.9281 26.7745 Z M 18.4631 25.755 C 18.7289 26.7175 19.3891 24.6737 18.4631 25.755 L 18.4631 25.755 Z M 19.1118 25.3208 C 20.6529 23.4689 27.8402 24.1385 22.5791 25.1403 C 21.1693 24.0783 20.089 25.7665 19.1118 25.3208 Z M 28.4915 23.8749 C 28.2566 18.8162 33.1509 25.6728 28.4915 23.8749 L 28.4915 23.8749 Z M 31.1526 23.8607 C 32.1256 21.311 34.9285 22.8375 31.6025 23.3481 C 31.6752 23.6196 31.5052 24.6642 31.1526 23.8607 Z M 9.67306 37.382 C 6.58662 35.8372 12.5806 35.6018 9.67306 37.382 L 9.67306 37.382 Z M 11.8231 37.9794 C 9.60767 37.5399 12.8422 36.8954 11.8231 37.9794 L 11.8231 37.9794 Z M 5.48858 33.4836 C 3.52268 32.9982 7.14951 32.2072 5.48858 33.4836 L 5.48858 33.4836 Z M 91.3345 87.1887 C 90.0649 87.8562 91.3826 85.7083 91.3345 87.1887 L 91.3345 87.1887 Z M 82.6114 81.2356 C 81.4903 81.3847 82.8594 79.5312 82.6114 81.2356 L 82.6114 81.2356 Z M 93.733 87.7631 C 96.0557 87.771 100.771 87.0412 95.7167 87.0438 C 94.9242 87.1678 91.096 87.1411 93.733 87.7631 Z M 13.7137 36.9347 C 15.5933 36.8055 16.6547 34.861 13.3501 34.973 C 8.22871 34.4425 17.8683 36.7265 12.6931 36.0731 C 11.9973 36.5334 13.6739 37.0618 13.7137 36.9347 Z M 15.3689 37.7722 C 14.7882 38.4136 15.1727 36.5654 15.3689 37.7722 L 15.3689 37.7722 Z M 17.3327 32.5357 C 16.2043 32.2653 18.1487 31.524 17.3327 32.5357 L 17.3327 32.5357 Z M 11.0813 22.0863 C 14.4361 20.9448 19.0239 19.6626 20.6074 22.6481 C 18.9957 20.7079 19.9572 18.7979 21.4795 21.6348 C 23.6327 24.5052 24.7103 20.3291 23.3104 19.3666 C 24.906 21.3492 26.7212 22.2861 24.3786 19.4921 C 26.9242 16.4303 19.2818 19.8928 17.5451 19.8583 C 16.7091 20.2329 8.91662 21.8451 11.0813 22.0868 L 11.0813 22.0863 Z M 13.0477 18.3208 C 14.9608 16.877 19.6642 19.1798 16.6463 16.8859 C 16.3508 16.6254 10.0366 18.6253 13.0477 18.3208 Z M 20.0226 18.6085 C 22.2616 18.6661 19.0569 15.6006 21.7248 16.99 C 21.287 15.5582 18.6185 15.2898 17.3138 14.7181 C 16.5762 16.0269 18.8157 18.6263 20.0226 18.6091 L 20.0226 18.6085 Z M 14.2703 12.2777 C 12.9128 12.8102 15.045 11.2278 14.2703 12.2777 L 14.2703 12.2777 Z M 17.1213 12.9604 C 20.7298 12.4817 16.2017 11.4067 16.3942 12.9217 L 17.1213 12.9604 Z M 11.7985 8.79472 C 9.2577 5.4781 16.5767 9.35184 13.9951 5.87934 C 11.8226 4.14936 9.73479 7.82641 11.798 8.79472 L 11.7985 8.79472 Z M 44.4049 26.3571 C 45.5699 24.2913 39.5937 23.5725 43.6197 25.6247 C 43.9901 25.7492 43.9069 26.4999 44.4049 26.3571 Z" stroke-linecap="round" />
</g>
</g>
</g>
<g transform="matrix(1.49 0 0 1.49 75 75)"  >
<g style=""   >
		<g transform="matrix(1 0 0 1 0 0)" id="path_0"  >
<path style="stroke: none; stroke-width: 1; stroke-dasharray: none; stroke-linecap: butt; stroke-dashoffset: 0; stroke-linejoin: miter; stroke-miterlimit: 4; fill: rgb(0,0,0); fill-rule: nonzero; opacity: 1;"  transform=" translate(-50, -49.6)" d="M 29.883 84.4345 C 26.0736 81.438 22.0099 78.565 19.2332 74.5202 C 13.3899 67.3863 8.89099 59.1272 5.81501 50.4475 C 3.95635 44.8041 3.3197 38.7531 0.923266 33.3272 C -1.58355 29.3865 1.35275 25.0786 5.66958 23.8262 C 7.59102 23.4574 10.9704 21.6448 6.8916 22.94 C 3.23496 25.6237 2.8808 20.5049 6.63004 20.1805 C 9.18969 19.8405 10.1318 17.7454 9.25613 15.8595 C 6.50972 14.0678 15.9181 12.0993 11.1838 9.42613 C 6.25234 4.10594 18.0823 3.08166 15.1633 9.12376 C 14.4649 13.7702 23.4297 8.27211 21.3497 13.6383 C 23.4632 16.2147 29.2662 14.2242 29.1223 17.839 C 32.202 18.0509 33.2592 20.6425 36.15 20.8412 C 39.1465 22.1946 44.5776 23.2607 45.5977 26.6375 C 42.6247 28.9905 35.7415 21.7756 35.4108 28.2906 C 36.3085 37.914 36.0799 47.8272 39.6011 56.9913 C 41.2662 62.5406 45.3031 66.9087 48.9493 71.2308 C 52.4386 75.4634 57.164 78.4431 61.9804 80.952 C 66.2051 82.9451 70.76 84.2666 75.3645 85.0952 C 77.2321 83.6671 80.5294 78.3563 83.4432 80.5958 C 83.5813 83.112 77.6605 85.8558 83.1643 85.5775 C 86.3962 84.6029 88.6383 88.077 91.2995 84.943 C 93.7514 87.8479 101.491 83.0874 99.7464 89.0244 C 97.3871 90.5467 93.9465 89.6265 91.5835 91.7206 C 87.6878 89.7745 84.5857 93.4615 80.2725 92.9954 C 75.4828 93.8534 70.6099 94.1997 65.7532 94.207 C 57.7865 93.5777 49.6508 93.3124 42.0713 90.5383 C 37.8026 89.298 33.6353 86.8665 29.883 84.4345 Z M 36.6114 87.3499 C 40.7807 89.1525 44.8574 91.0531 49.4264 91.6259 C 56.6754 92.6345 64.1608 94.185 71.4359 92.7705 C 68.1433 91.2838 64.7393 93.3496 61.4593 91.7075 C 57.5254 92.5539 53.3038 91.492 49.304 90.9688 C 44.7559 88.9428 39.848 87.5497 35.5887 84.9205 C 30.2669 82.9765 38.3414 87.4131 39.7784 87.7725 C 43.1055 89.661 36.1202 86.8048 35.1351 86.0195 C 32.349 84.4564 31.9938 84.7829 34.8595 86.37 C 35.4365 86.708 36.0061 87.0621 36.6114 87.3499 Z M 28.6782 81.7435 C 32.7183 83.2397 28.6604 78.9029 26.8096 79.1541 C 25.9893 77.7311 23.6761 76.8324 25.3077 76.0681 C 22.3719 77.0872 22.2323 72.1928 20.8528 72.8922 C 17.747 71.9114 19.6444 68.4378 15.9448 66.3045 C 15.6069 64.0566 12.2693 62.107 11.2053 58.7166 C 10.7345 56.9803 7.43356 51.9955 9.46172 56.6345 C 11.188 61.101 14.2253 64.9261 16.753 68.7459 C 18.7158 72.3832 21.0338 76.1848 24.6083 78.4541 C 25.8136 79.6102 26.977 81.381 28.6782 81.7435 Z M 17.0402 68.9657 C 17.1815 68.3552 17.7789 70.286 17.0402 68.9657 L 17.0402 68.9657 Z M 33.5166 83.5373 C 32.2302 83.0325 34.4111 83.1366 33.5166 83.5373 L 33.5166 83.5373 Z M 35.7095 84.3377 C 34.7088 84.955 35.4825 83.2329 35.7095 84.3377 L 35.7095 84.3377 Z M 38.4549 85.4823 C 36.4409 84.6976 39.7617 84.2378 38.4549 85.4823 L 38.4549 85.4823 Z M 43.1599 88.1047 C 40.618 87.6616 43.954 86.9308 43.1599 88.1047 L 43.1599 88.1047 Z M 34.1255 81.8063 C 31.5031 81.7885 36.1552 80.4932 34.1255 81.8063 L 34.1255 81.8063 Z M 36.1845 82.8332 C 35.4506 83.1444 36.127 82.139 36.1845 82.8332 L 36.1845 82.8332 Z M 46.4765 89.2572 C 48.1312 90.3018 56.1386 91.5458 51.1245 89.6856 C 50.2854 89.8624 41.8275 87.2934 46.4765 89.2572 Z M 30.1372 76.5316 C 27.5687 75.7626 29.9766 75.8359 30.1372 76.5316 L 30.1372 76.5316 Z M 34.929 79.3241 C 32.3406 78.6534 36.1756 78.4546 34.929 79.3241 L 34.929 79.3241 Z M 38.9592 81.7953 C 36.0558 81.1179 40.7483 81.1205 38.9592 81.7953 L 38.9592 81.7953 Z M 28.188 74.4088 C 30.1288 75.8971 36.0177 74.5992 31.161 73.5195 C 28.9502 72.3414 23.9685 71.5347 27.3641 74.2299 L 28.1875 74.4082 L 28.188 74.4088 Z M 41.6889 82.6485 C 38.2974 81.8617 42.4976 81.2706 41.6889 82.6485 L 41.6889 82.6485 Z M 37.586 79.3884 C 42.3339 80.7313 33.594 76.3857 36.4147 78.8941 L 37.0398 79.1765 L 37.586 79.3884 Z M 45.8116 84.142 C 41.7506 83.5221 50.3079 84.1849 45.8116 84.142 L 45.8116 84.142 Z M 26.4575 71.8067 C 25.3485 71.8774 26.2818 70.9697 26.4575 71.8067 L 26.4575 71.8067 Z M 53.4173 88.4087 C 51.95 89.5339 53.5371 86.8958 53.4173 88.4087 L 53.4173 88.4087 Z M 34.1302 76.5055 C 32.7256 76.4725 33.8582 75.7087 34.1302 76.5055 L 34.1302 76.5055 Z M 26.8839 71.281 C 23.3502 70.1437 29.4655 71.1262 26.8839 71.281 L 26.8839 71.281 Z M 18.2994 65.7322 C 15.4907 63.5079 17.9782 64.495 18.2994 65.7322 L 18.2994 65.7322 Z M 40.8356 80.0345 C 40.3627 79.4951 40.6133 80.1522 40.8356 80.0345 L 40.8356 80.0345 Z M 54.8627 88.642 C 54.099 88.9538 54.8177 87.8181 54.8627 88.642 L 54.8627 88.642 Z M 39.5943 78.7523 C 37.393 78.4311 39.8469 77.6903 39.5943 78.7523 L 39.5943 78.7523 Z M 29.1443 72.1295 C 26.0683 70.8311 31.0642 71.9239 29.1443 72.1295 L 29.1443 72.1295 Z M 46.8212 83.1136 C 43.9048 82.535 49.8135 81.9282 46.8212 83.1136 L 46.8212 83.1136 Z M 37.6263 76.8722 C 41.0752 77.3168 33.5229 74.526 36.8698 76.6221 L 37.6263 76.8722 Z M 49.6132 84.2425 C 52.833 82.3174 51.7716 88.7503 55.0762 84.7865 C 58.3352 82.4063 52.2612 87.7286 56.2783 85.2103 C 59.1838 83.2674 63.4749 86.1315 66.1858 87.0658 C 68.1349 86.9701 70.0308 88.7518 72.0291 87.6679 C 75.8762 86.6321 64.5055 86.131 67.4863 84.2927 C 63.9656 85.317 61.3657 83.0712 59.6331 80.8165 C 55.6846 79.9047 51.1187 77.886 49.1481 74.3915 C 48.3446 73.0795 50.3094 74.5762 48.4544 72.4314 C 46.0753 70.3153 44.8867 67.9131 43.2901 65.3404 C 41.3818 64.3224 41.1595 61.3265 40.9664 65.24 C 40.9821 62.7703 38.6626 61.1073 38.0971 61.7988 C 38.0866 59.4197 40.5783 60.6124 38.8342 58.8521 C 38.4586 56.3866 37.2229 53.8175 36.851 51.034 C 36.2735 49.6921 36.7694 46.8181 34.8804 49.8559 C 34.1925 53.0663 34.6523 45.911 35.7226 48.2708 C 37.1272 45.8629 35.2178 46.1459 35.1399 46.4801 C 36.0553 44.4489 35.719 41.567 34.9008 42.6666 C 35.3889 40.5134 35.6713 34.7423 34.171 35.765 C 35.0807 33.5134 35.8958 25.4625 31.9477 28.5322 C 30.348 28.5547 27.5776 29.1129 26.2682 29.7642 C 30.3747 32.0278 25.8549 30.5818 24.1835 30.2219 C 23.9659 32.3165 22.3102 31.4105 20.2418 31.4309 C 23.5453 31.84 18.6332 34.8103 16.7379 33.6563 C 14.2766 34.8328 18.8618 37.7691 16.787 38.6767 C 17.0418 40.0457 13.0164 38.1829 13.3323 41.3436 C 10.9427 40.3387 13.0033 45.0933 14.1986 43.4853 C 18.2633 44.5854 17.0601 47.0927 17.1632 49.475 C 16.5014 50.8629 13.8936 46.2123 16.5825 46.4278 C 14.4618 42.982 14.2363 45.1823 12.4739 46.783 C 12.0637 46.8992 16.9696 49.0607 13.891 50.1295 C 16.5998 50.5474 16.6767 52.9177 17.2286 54.4175 C 18.856 56.113 18.5233 52.5447 20.4709 54.5828 C 19.2384 52.7676 13.9418 49.4677 18.2058 50.526 C 18.1833 48.6987 17.4347 47.2251 18.7414 47.2612 C 20.0351 44.9176 17.3865 53.0386 20.303 50.0599 C 21.1102 49.7078 21.31 47.7142 22.7617 50.2482 C 24.8688 52.3219 23.5228 53.8248 20.5494 51.9259 C 21.0814 53.7307 24.5267 54.3752 23.8791 57.1974 C 24.5659 59.6791 25.5259 58.7652 26.3629 58.6214 C 27.0199 61.033 27.3924 59.2596 27.4238 58.1124 C 30.4302 58.7558 29.726 60.5334 30.6671 61.7748 C 32.7387 62.7101 27.701 55.4361 31.2583 59.5881 C 35.0007 62.9664 32.6618 64.3768 29.3033 63.8359 C 31.4288 63.6632 32.1146 66.7089 34.7731 66.6022 C 37.1978 67.7551 38.8389 72.1855 34.6601 70.341 C 33.2111 69.0342 28.0813 67.4219 32.271 69.9078 C 36.1401 71.6995 39.2129 72.7719 42.9449 75.0208 C 45.616 76.9276 46.7695 79.1117 47.7817 79.5433 C 45.5375 80.6157 41.0177 78.6874 44.3735 78.0963 C 42.2805 77.7149 39.9259 76.6566 41.9305 79.2649 C 43.6359 80.6879 47.9716 80.5377 48.749 80.6983 C 48.0898 82.1505 46.9594 82.2656 48.7756 82.3786 C 46.7491 83.4583 49.4254 83.6257 49.6132 84.2425 Z M 45.4695 72.5402 C 44.2365 71.2512 43.9179 68.8359 45.2503 70.9373 C 45.934 71.212 47.4401 74.8838 45.4695 72.5402 Z M 58.9646 81.1126 C 58.9871 81.697 59.7336 81.0629 58.9646 81.1126 L 58.9646 81.1126 Z M 43.5224 69.3789 C 43.4753 67.4298 43.9686 70.8824 43.5224 69.3789 L 43.5224 69.3789 Z M 42.1816 67.5741 C 40.6306 64.5777 44.1366 68.4226 42.1816 67.5741 L 42.1816 67.5741 Z M 25.9271 56.3557 C 26.3754 57.9141 26.8379 56.113 25.9271 56.3557 L 25.9271 56.3557 Z M 38.8629 63.3677 C 39.4227 61.2663 39.5205 65.1306 38.8629 63.3677 L 38.8629 63.3677 Z M 29.7239 57.0128 C 29.08 55.8535 31.0715 58.1003 29.7239 57.0128 L 29.7239 57.0128 Z M 37.5672 59.5274 C 36.0982 56.2354 38.6071 57.7294 37.892 60.0662 L 37.5672 59.5274 Z M 24.0417 50.5072 C 23.3847 49.4269 22.2982 46.2583 22.6481 45.2916 C 22.9646 46.8662 25.9982 52.0708 24.1364 47.4469 C 22.0785 43.571 26.5956 48.705 27.0607 49.6717 C 27.2768 50.6338 25.7911 49.4091 26.7976 51.6638 C 24.9614 49.0968 25.7137 53.082 24.0417 50.5072 Z M 19.862 47.6268 C 20.0336 45.1158 20.8188 49.3484 19.862 47.6268 L 19.862 47.6268 Z M 21.7421 48.2739 C 22.6393 46.3787 23.2633 50.9157 21.7421 48.2739 L 21.7421 48.2739 Z M 17.2186 44.7748 C 15.6623 43.2284 14.5366 41.8034 17.2919 43.8153 C 18.3538 43.8567 14.9326 40.5735 17.5471 42.7728 C 20.2967 43.2739 18.9047 47.28 17.2186 44.7748 Z M 19.5947 44.713 C 20.0744 45.5945 20.4986 43.8174 19.5947 44.713 L 19.5947 44.713 Z M 21.0568 45.1818 C 19.6862 42.6132 22.7193 46.2583 21.0568 45.1818 L 21.0568 45.1818 Z M 18.1503 42.404 C 13.6263 38.378 23.8356 44.5095 18.8895 43.1505 L 18.1503 42.404 Z M 31.1134 49.9359 C 29.1553 48.762 30.5944 41.6716 31.2619 46.521 C 33.1651 45.9052 31.1568 49.0252 32.5765 48.9964 C 32.3526 50.9649 31.7176 51.6727 31.1128 49.9359 L 31.1134 49.9359 Z M 35.9078 52.7697 C 36.0998 50.6327 36.3117 54.2303 35.9078 52.7697 L 35.9078 52.7697 Z M 35.075 51.9468 C 35.097 53.0213 35.2905 51.034 35.075 51.9468 L 35.075 51.9468 Z M 19.0381 41.0815 C 16.1316 37.0712 27.485 45.1378 20.8993 42.0984 C 20.2114 41.9185 19.3833 41.8547 19.0381 41.0815 Z M 28.2707 45.9764 C 27.9955 42.5996 28.8848 46.5361 28.2707 45.9764 L 28.2707 45.9764 Z M 35.2806 50.4732 C 35.3209 51.7454 35.8231 48.5496 35.2806 50.4732 L 35.2806 50.4732 Z M 19.4832 39.5503 C 21.2106 39.1815 26.6422 42.5844 21.6542 40.5233 C 21.0997 39.9092 19.9185 40.1885 19.4832 39.5503 Z M 34.317 46.9447 C 34.5016 43.4921 35.3481 44.8825 34.3233 47.439 L 34.317 46.9447 Z M 20.7686 38.3497 C 21.4722 37.3176 18.9 33.6819 21.1395 37.0456 C 22.1072 37.8146 23.9408 38.3335 22.3217 38.6568 C 24.8683 40.9036 21.7008 39.2657 20.7686 38.3497 Z M 33.5836 45.866 C 34.0125 48.1704 34.0701 41.9331 33.5836 45.866 L 33.5836 45.866 Z M 19.2991 34.7166 C 19.5832 35.4333 19.8369 34.4865 19.2991 34.7166 L 19.2991 34.7166 Z M 22.6419 36.7061 C 23.5019 34.9013 24.2285 38.7191 22.6419 36.7061 L 22.6419 36.7061 Z M 32.0702 41.9509 C 32.0613 41.2578 32.248 42.9595 32.0702 41.9509 L 32.0702 41.9509 Z M 31.524 40.742 C 30.2152 37.5133 32.7413 42.4516 31.524 40.742 L 31.524 40.742 Z M 30.7205 38.6254 C 30.5008 37.2915 31.467 40.3015 30.7205 38.6254 L 30.7205 38.6254 Z M 32.0283 36.4994 C 31.1301 34.917 33.1624 29.5262 33.389 32.8689 C 32.4411 35.4746 33.1154 36.9321 33.7766 33.4376 C 34.9981 30.6875 33.5129 38.8645 32.0283 36.4994 Z M 33.3722 28.4815 C 33.4591 29.0611 33.7635 28.0013 33.3722 28.4815 L 33.3722 28.4815 Z M 31.128 72.7039 C 30.5955 72.2394 31.195 72.9995 31.128 72.7039 L 31.128 72.7039 Z M 35.7509 75.0423 C 38.3226 75.7025 38.3095 74.6421 35.9852 74.3277 C 34.735 73.1643 30.7906 71.9307 34.3217 74.1833 C 34.555 74.7755 35.2942 74.7619 35.7509 75.0423 Z M 26.6202 68.9777 C 28.0374 70.0344 31.9566 71.9721 28.6385 69.3805 C 29.7574 68.08 26.4973 67.3884 27.5786 66.519 C 24.828 64.8356 25.4087 64.9852 27.3359 65.0385 C 24.0297 63.5607 27.813 63.6711 27.6351 62.9141 C 26.3602 62.6625 21.3037 60.6663 24.2787 63.0779 C 21.2545 61.5362 23.5579 63.6523 22.644 63.4284 C 19.5512 62.5856 25.3977 65.784 22.1522 64.9899 C 23.9267 66.3961 26.9284 68.5911 22.9029 66.4777 C 22.3725 67.2414 25.7832 68.3981 26.6202 68.9777 Z M 31.4555 71.7555 C 28.5731 69.4412 37.3354 73.6502 31.4555 71.7555 L 31.4555 71.7555 Z M 56.2082 86.7509 C 55.4047 87.7459 56.2841 85.5843 56.2082 86.7509 L 56.2082 86.7509 Z M 58.7522 87.8217 C 60.1086 86.5071 58.8076 89.9153 61 87.5 C 61.0236 85.7705 60.932 84.7494 58.4807 86.8497 C 57.8048 87.2243 57.5024 88.8183 58.7522 87.8217 Z M 18.3679 62.4595 C 15.4478 60.83 17.951 60.8222 18.3679 62.4595 L 18.3679 62.4595 Z M 21.0845 64.2392 C 17.4854 62.7253 20.0754 62.5668 21.0845 64.2392 L 21.0845 64.2392 Z M 36.5392 73.5597 C 38.0479 74.9 43.4696 74.5432 38.3717 73.7251 C 37.6169 72.6087 33.5778 72.8776 36.5392 73.5597 Z M 57.7844 86.6808 C 55.5349 87.5502 60.1071 84.7321 57.7844 86.6808 L 57.7844 86.6808 Z M 62.6144 90 C 61.6137 90.2736 62.6291 89.3743 62.6144 90 L 62.6144 90 Z M 62.6217 89.1243 C 60.1301 89.2854 65.1934 86.3993 62.6217 89.1243 L 62.6217 89.1243 Z M 11.6866 56.8658 C 9.49468 53.738 10.3238 52.3324 8.2104 49.779 C 7.81021 47.8261 4.5841 43.3948 6.54163 48.0893 C 8.33491 50.8352 8.86745 55.0861 11.6866 56.8658 Z M 61.8156 88.2585 C 59.8738 86.9261 66.5473 85.2003 61.8156 88.2585 L 61.8156 88.2585 Z M 65.4273 89.673 C 63.929 89.2477 67.797 87.6386 65.4273 89.673 L 65.4273 89.673 Z M 17.5628 59.0022 C 15.8119 58.8735 18.2408 57.9936 17.5628 59.0022 L 17.5628 59.0022 Z M 64.6734 88.7068 C 66.9673 87.228 64.1451 87.455 64.2575 88.8429 L 64.6734 88.7068 Z M 33.5401 69.0834 C 32.3286 69.1686 33.4617 68.0847 33.5401 69.0834 L 33.5401 69.0834 Z M 35.4642 70.1908 C 34.5241 70.3849 34.8527 68.9547 35.4642 70.1908 L 35.4642 70.1908 Z M 68.3541 89.7065 C 71.2936 87.5863 66.5729 89.3006 67.7374 90.1083 L 68.3541 89.7065 Z M 67.2294 89.1625 C 64.7012 90.0518 69.6232 87.1563 67.2294 89.1625 L 67.2294 89.1625 Z M 72.9786 92.9918 C 71.0263 92.6434 74.5867 91.9152 72.9786 92.9918 L 72.9786 92.9918 Z M 19.0365 58.2751 C 21.1918 58.7579 27.6471 63.5816 23.8388 58.6088 C 21.8875 58.0313 23.0578 53.2625 21.0683 54.1068 C 22.4038 56.3379 22.1669 57.2874 19.3629 55.8807 C 15.8386 54.1607 17.3824 56.7334 18.0708 57.4422 C 17.1328 57.6557 19.3127 58.2573 19.0365 58.2751 Z M 9.22004 50.5218 C 9.60558 48.9263 5.66801 41.7438 7.36032 46.9227 C 7.97134 48.0077 7.90961 50.0636 9.22004 50.5218 Z M 27.238 61.6304 C 26.1285 60.7024 27.1857 61.4991 27.238 61.6304 L 27.238 61.6304 Z M 29.9703 62.266 C 26.9503 61.5796 29.9688 60.5763 29.9703 62.266 L 29.9703 62.266 Z M 53.6475 77.1928 C 51.8626 77.1656 53.1961 76.0378 53.6475 77.1928 L 53.6475 77.1928 Z M 54.7848 78.023 C 54.1288 78.1481 54.6174 77.377 54.7848 78.023 L 54.7848 78.023 Z M 64.1697 83.9344 C 63.0434 83.8491 65.0726 83.2679 64.1697 83.9344 L 64.1697 83.9344 Z M 14.1233 51.7742 C 11.3575 51.0612 16.7049 50.7745 14.1233 51.7742 L 14.1233 51.7742 Z M 51.5634 75.3619 C 49.9176 75.7762 51.5346 73.69 51.5634 75.3619 L 51.5634 75.3619 Z M 13.1032 49.3971 C 11.5694 49.0283 14.7615 48.8368 13.1032 49.3971 L 13.1032 49.3971 Z M 17.917 51.7287 C 17.408 51.9369 17.8867 51.1794 17.917 51.7287 L 17.917 51.7287 Z M 76.6274 87.7317 C 78.7602 87.2991 83.6195 88.8172 84.4052 87.1668 C 81.8157 87.1035 75.4451 85.339 75.1438 87.5873 L 75.7109 87.6763 L 76.6274 87.7317 Z M 19.4466 52.1142 C 18.1262 52.0514 19.4838 50.4209 19.4466 52.1142 L 19.4466 52.1142 Z M 6.79064 43.3351 C 4.6045 42.8465 6.21573 40.108 6.79064 43.3351 L 6.79064 43.3351 Z M 9.80907 44.0937 C 7.04645 43.1614 9.84569 43.0579 9.80907 44.0937 L 9.80907 44.0937 Z M 11.5333 44.9411 C 11.0348 44.5367 11.143 45.4506 11.5333 44.9411 L 11.5333 44.9411 Z M 22.3855 51.9023 C 21.1761 51.5545 22.8966 51.4331 22.3855 51.9023 L 22.3855 51.9023 Z M 10.385 43.0301 C 6.88899 42.665 10.0931 40.5929 10.385 43.0301 L 10.385 43.0301 Z M 4.19699 39.0157 C 3.59382 39.4394 4.10858 37.891 4.19699 39.0157 L 4.19699 39.0157 Z M 5.11716 38.3204 C 4.32724 38.4905 4.96703 36.9865 5.11716 38.3204 L 5.11716 38.3204 Z M 10.2019 41.3561 C 12.3525 40.5113 6.28583 39.6089 9.76252 41.1966 L 10.2019 41.3561 Z M 78.2595 83.394 C 76.5107 83.0037 79.6359 82.1322 78.2595 83.394 L 78.2595 83.394 Z M 86.4815 87.6559 C 85.0931 87.8704 87.0329 86.0243 86.4815 87.6559 L 86.4815 87.6559 Z M 10.723 38.6908 C 9.01759 39.0042 10.949 37.1125 10.723 38.6908 L 10.723 38.6908 Z M 3.4871 33.843 C 3.09842 31.615 3.15178 27.7041 6.86911 29.0261 C 1.90674 30.0111 10.3034 35.1937 9.24305 31.1018 C 11.3298 31.2038 13.325 29.8688 12.2301 31.8954 C 16.3413 31.4413 19.1913 27.8762 23.1624 28.3758 C 26.2556 27.9662 29.6376 27.656 32.971 26.411 C 35.7122 26.2132 38.3503 23.2628 36.8479 21.5135 C 33.1101 21.1975 29.1982 21.6652 25.0671 22.4865 C 20.4897 23.4375 16.3309 25.246 11.7127 26.0218 C 7.21071 26.6265 12.6177 27.6879 11.3288 27.9244 C 8.9794 28.7399 14.1301 29.2897 11.0238 30.1487 C 9.10547 29.7841 7.10922 29.1249 7.92844 27.1031 C 3.61579 27.6628 -0.173728 29.4524 3.23339 33.8409 L 3.4871 33.843 Z M 13.8785 28.5511 C 14.8897 24.8264 19.2954 31.6161 15.5357 29.0454 C 15.0869 28.7096 14.3482 28.4355 13.8785 28.5511 Z M 14.0752 26.7447 C 14.851 27.3547 15.5347 25.6577 14.0752 26.7447 L 14.0752 26.7447 Z M 15.9281 26.7745 C 16.0599 25.0603 20.1706 27.6816 16.606 27.3918 L 15.9281 26.7745 Z M 18.4631 25.755 C 18.7289 26.7175 19.3891 24.6737 18.4631 25.755 L 18.4631 25.755 Z M 19.1118 25.3208 C 20.6529 23.4689 27.8402 24.1385 22.5791 25.1403 C 21.1693 24.0783 20.089 25.7665 19.1118 25.3208 Z M 28.4915 23.8749 C 28.2566 18.8162 33.1509 25.6728 28.4915 23.8749 L 28.4915 23.8749 Z M 31.1526 23.8607 C 32.1256 21.311 34.9285 22.8375 31.6025 23.3481 C 31.6752 23.6196 31.5052 24.6642 31.1526 23.8607 Z M 9.67306 37.382 C 6.58662 35.8372 12.5806 35.6018 9.67306 37.382 L 9.67306 37.382 Z M 11.8231 37.9794 C 9.60767 37.5399 12.8422 36.8954 11.8231 37.9794 L 11.8231 37.9794 Z M 5.48858 33.4836 C 3.52268 32.9982 7.14951 32.2072 5.48858 33.4836 L 5.48858 33.4836 Z M 91.3345 87.1887 C 90.0649 87.8562 91.3826 85.7083 91.3345 87.1887 L 91.3345 87.1887 Z M 82.6114 81.2356 C 81.4903 81.3847 82.8594 79.5312 82.6114 81.2356 L 82.6114 81.2356 Z M 93.733 87.7631 C 96.0557 87.771 100.771 87.0412 95.7167 87.0438 C 94.9242 87.1678 91.096 87.1411 93.733 87.7631 Z M 13.7137 36.9347 C 15.5933 36.8055 16.6547 34.861 13.3501 34.973 C 8.22871 34.4425 17.8683 36.7265 12.6931 36.0731 C 11.9973 36.5334 13.6739 37.0618 13.7137 36.9347 Z M 15.3689 37.7722 C 14.7882 38.4136 15.1727 36.5654 15.3689 37.7722 L 15.3689 37.7722 Z M 17.3327 32.5357 C 16.2043 32.2653 18.1487 31.524 17.3327 32.5357 L 17.3327 32.5357 Z M 11.0813 22.0863 C 14.4361 20.9448 19.0239 19.6626 20.6074 22.6481 C 18.9957 20.7079 19.9572 18.7979 21.4795 21.6348 C 23.6327 24.5052 24.7103 20.3291 23.3104 19.3666 C 24.906 21.3492 26.7212 22.2861 24.3786 19.4921 C 26.9242 16.4303 19.2818 19.8928 17.5451 19.8583 C 16.7091 20.2329 8.91662 21.8451 11.0813 22.0868 L 11.0813 22.0863 Z M 13.0477 18.3208 C 14.9608 16.877 19.6642 19.1798 16.6463 16.8859 C 16.3508 16.6254 10.0366 18.6253 13.0477 18.3208 Z M 20.0226 18.6085 C 22.2616 18.6661 19.0569 15.6006 21.7248 16.99 C 21.287 15.5582 18.6185 15.2898 17.3138 14.7181 C 16.5762 16.0269 18.8157 18.6263 20.0226 18.6091 L 20.0226 18.6085 Z M 14.2703 12.2777 C 12.9128 12.8102 15.045 11.2278 14.2703 12.2777 L 14.2703 12.2777 Z M 17.1213 12.9604 C 20.7298 12.4817 16.2017 11.4067 16.3942 12.9217 L 17.1213 12.9604 Z M 11.7985 8.79472 C 9.2577 5.4781 16.5767 9.35184 13.9951 5.87934 C 11.8226 4.14936 9.73479 7.82641 11.798 8.79472 L 11.7985 8.79472 Z M 44.4049 26.3571 C 45.5699 24.2913 39.5937 23.5725 43.6197 25.6247 C 43.9901 25.7492 43.9069 26.4999 44.4049 26.3571 Z" stroke-linecap="round" />
</g>
</g>
</g>
</svg>