<?xml version="1.0" encoding="UTF-8" standalone="no" ?>
<!DOCTYPE svg PUBLIC "-//W3C//DTD SVG 1.1//EN" "http://www.w3.org/Graphics/SVG/1.1/DTD/svg11.dtd">
<svg xmlns="http://www.w3.org/2000/svg" xmlns:xlink="http://www.w3.org/1999/xlink" version="1.1" width="150" height="150" viewBox="0 0 150 150" xml:space="preserve">
<!-- Created with SVG Stack Editor - https://svgstack.com -->
<defs>
</defs>
<rect x="0" y="0" width="100%" height="100%" fill="transparent"></rect>
<g transform="matrix(1.49 0 0 1.49 75 75)"  >
<g style=""   >
		<g transform="matrix(1 0 0 1 -17.94 -0.05)" id="path_0"  >
<path style="stroke: none; stroke-width: 1; stroke-dasharray: none; stroke-linecap: butt; stroke-dashoffset: 0; stroke-linejoin: miter; stroke-miterlimit: 4; fill: rgb(0,172,215); fill-rule: nonzero; opacity: 1;"  transform=" translate(-32.06, -49.63)" d="M 7.54671 42.3129 C 7.35195 42.3129 7.30326 42.2155 7.40064 42.0695 L 8.4231 40.7549 C 8.52048 40.6088 8.76392 40.5114 8.95867 40.5114 L 26.3404 40.5114 C 26.5352 40.5114 26.5839 40.6575 26.4865 40.8036 L 25.6588 42.0695 C 25.5614 42.2155 25.318 42.3616 25.1719 42.3616 L 7.54671 42.3129 Z M 0.194754 46.7923 C 0 46.7923 -0.0486884 46.6949 0.0486884 46.5488 L 1.07115 45.2342 C 1.16852 45.0882 1.41196 44.9908 1.60672 44.9908 L 23.8086 44.9908 C 24.0034 44.9908 24.1008 45.1368 24.0521 45.2829 L 23.6626 46.4514 C 23.6139 46.6462 23.4191 46.7436 23.2244 46.7436 L 0.194754 46.7923 Z M 11.9774 51.2716 C 11.7826 51.2716 11.7339 51.1255 11.8313 50.9795 L 12.5129 49.7622 C 12.6103 49.6162 12.8051 49.4701 12.9998 49.4701 L 22.7375 49.4701 C 22.9323 49.4701 23.0296 49.6162 23.0296 49.8109 L 22.9323 50.9795 C 22.9323 51.1742 22.7375 51.3203 22.5914 51.3203 L 11.9774 51.2716 Z M 62.5159 41.4365 C 59.4486 42.2155 57.355 42.7998 54.3363 43.5788 C 53.606 43.7736 53.5573 43.8223 52.9243 43.0919 C 52.194 42.2642 51.6584 41.7287 50.636 41.2418 C 47.5686 39.7324 44.5986 40.1706 41.8234 41.9721 C 38.5126 44.1144 36.8085 47.2791 36.8571 51.2229 C 36.9058 55.118 39.5837 58.3314 43.4301 58.867 C 46.7409 59.3052 49.5161 58.1367 51.7071 55.6535 C 52.1453 55.118 52.5348 54.5337 53.0217 53.8521 L 43.6248 53.8521 C 42.6024 53.8521 42.3589 53.2191 42.6998 52.3914 C 43.3327 50.8821 44.5012 48.3503 45.1829 47.0844 C 45.3289 46.7923 45.6698 46.3054 46.4001 46.3054 L 64.1227 46.3054 C 64.0253 47.62 64.0253 48.9345 63.8305 50.2491 C 63.295 53.7547 61.9804 56.9681 59.8381 59.7921 C 56.3325 64.4175 51.7558 67.2901 45.9619 68.0691 C 41.1904 68.702 36.7598 67.777 32.8647 64.8557 C 29.2617 62.1291 27.2168 58.5262 26.6813 54.0468 C 26.0483 48.7398 27.6063 43.9683 30.8198 39.7811 C 34.2767 35.2531 38.8534 32.3805 44.4525 31.358 C 49.0293 30.5303 53.4112 31.0659 57.355 33.7438 C 59.9355 35.4478 61.7856 37.7849 63.0028 40.6088 C 63.295 41.047 63.1002 41.2905 62.5159 41.4365 Z" stroke-linecap="round" />
</g>
		<g transform="matrix(1 0 0 1 30.62 0.23)" id="path_1"  >
<path style="stroke: none; stroke-width: 1; stroke-dasharray: none; stroke-linecap: butt; stroke-dashoffset: 0; stroke-linejoin: miter; stroke-miterlimit: 4; fill: rgb(0,172,215); fill-rule: nonzero; opacity: 1;"  transform=" translate(-80.62, -49.91)" d="M 78.6318 68.3613 C 74.2012 68.2639 70.16 66.998 66.7518 64.0767 C 63.8792 61.5936 62.0778 58.4289 61.4935 54.6799 C 60.6171 49.1781 62.1264 44.3092 65.4372 39.976 C 68.9915 35.3019 73.2761 32.8674 79.07 31.845 C 84.0362 30.9686 88.7103 31.4555 92.9462 34.3281 C 96.7926 36.9573 99.1783 40.5115 99.8112 45.1856 C 100.639 51.7585 98.7401 57.1143 94.2121 61.691 C 90.9986 64.9531 87.0549 66.998 82.5269 67.9231 C 81.2123 68.1665 79.8977 68.2152 78.6318 68.3613 Z M 90.2196 48.6912 C 90.1709 48.0582 90.1709 47.5713 90.0736 47.0845 C 89.1972 42.2643 84.7665 39.5378 80.1411 40.6089 C 75.6131 41.6314 72.6918 44.504 71.6207 49.0807 C 70.7443 52.8784 72.5944 56.7248 76.1 58.2828 C 78.7779 59.4513 81.4557 59.3053 84.0362 57.9907 C 87.8826 55.9944 89.9762 52.8784 90.2196 48.6912 Z" stroke-linecap="round" />
</g>
</g>
</g>
<g transform="matrix(1.49 0 0 1.49 75 75)"  >
<g style=""   >
		<g transform="matrix(1 0 0 1 -17.94 -0.05)" id="path_0"  >
<path style="stroke: none; stroke-width: 1; stroke-dasharray: none; stroke-linecap: butt; stroke-dashoffset: 0; stroke-linejoin: miter; stroke-miterlimit: 4; fill: rgb(0,172,215); fill-rule: nonzero; opacity: 1;"  transform=" translate(-32.06, -49.63)" d="M 7.54671 42.3129 C 7.35195 42.3129 7.30326 42.2155 7.40064 42.0695 L 8.4231 40.7549 C 8.52048 40.6088 8.76392 40.5114 8.95867 40.5114 L 26.3404 40.5114 C 26.5352 40.5114 26.5839 40.6575 26.4865 40.8036 L 25.6588 42.0695 C 25.5614 42.2155 25.318 42.3616 25.1719 42.3616 L 7.54671 42.3129 Z M 0.194754 46.7923 C 0 46.7923 -0.0486884 46.6949 0.0486884 46.5488 L 1.07115 45.2342 C 1.16852 45.0882 1.41196 44.9908 1.60672 44.9908 L 23.8086 44.9908 C 24.0034 44.9908 24.1008 45.1368 24.0521 45.2829 L 23.6626 46.4514 C 23.6139 46.6462 23.4191 46.7436 23.2244 46.7436 L 0.194754 46.7923 Z M 11.9774 51.2716 C 11.7826 51.2716 11.7339 51.1255 11.8313 50.9795 L 12.5129 49.7622 C 12.6103 49.6162 12.8051 49.4701 12.9998 49.4701 L 22.7375 49.4701 C 22.9323 49.4701 23.0296 49.6162 23.0296 49.8109 L 22.9323 50.9795 C 22.9323 51.1742 22.7375 51.3203 22.5914 51.3203 L 11.9774 51.2716 Z M 62.5159 41.4365 C 59.4486 42.2155 57.355 42.7998 54.3363 43.5788 C 53.606 43.7736 53.5573 43.8223 52.9243 43.0919 C 52.194 42.2642 51.6584 41.7287 50.636 41.2418 C 47.5686 39.7324 44.5986 40.1706 41.8234 41.9721 C 38.5126 44.1144 36.8085 47.2791 36.8571 51.2229 C 36.9058 55.118 39.5837 58.3314 43.4301 58.867 C 46.7409 59.3052 49.5161 58.1367 51.7071 55.6535 C 52.1453 55.118 52.5348 54.5337 53.0217 53.8521 L 43.6248 53.8521 C 42.6024 53.8521 42.3589 53.2191 42.6998 52.3914 C 43.3327 50.8821 44.5012 48.3503 45.1829 47.0844 C 45.3289 46.7923 45.6698 46.3054 46.4001 46.3054 L 64.1227 46.3054 C 64.0253 47.62 64.0253 48.9345 63.8305 50.2491 C 63.295 53.7547 61.9804 56.9681 59.8381 59.7921 C 56.3325 64.4175 51.7558 67.2901 45.9619 68.0691 C 41.1904 68.702 36.7598 67.777 32.8647 64.8557 C 29.2617 62.1291 27.2168 58.5262 26.6813 54.0468 C 26.0483 48.7398 27.6063 43.9683 30.8198 39.7811 C 34.2767 35.2531 38.8534 32.3805 44.4525 31.358 C 49.0293 30.5303 53.4112 31.0659 57.355 33.7438 C 59.9355 35.4478 61.7856 37.7849 63.0028 40.6088 C 63.295 41.047 63.1002 41.2905 62.5159 41.4365 Z" stroke-linecap="round" />
</g>
		<g transform="matrix(1 0 0 1 30.62 0.23)" id="path_1"  >
<path style="stroke: none; stroke-width: 1; stroke-dasharray: none; stroke-linecap: butt; stroke-dashoffset: 0; stroke-linejoin: miter; stroke-miterlimit: 4; fill: rgb(0,172,215); fill-rule: nonzero; opacity: 1;"  transform=" translate(-80.62, -49.91)" d="M 78.6318 68.3613 C 74.2012 68.2639 70.16 66.998 66.7518 64.0767 C 63.8792 61.5936 62.0778 58.4289 61.4935 54.6799 C 60.6171 49.1781 62.1264 44.3092 65.4372 39.976 C 68.9915 35.3019 73.2761 32.8674 79.07 31.845 C 84.0362 30.9686 88.7103 31.4555 92.9462 34.3281 C 96.7926 36.9573 99.1783 40.5115 99.8112 45.1856 C 100.639 51.7585 98.7401 57.1143 94.2121 61.691 C 90.9986 64.9531 87.0549 66.998 82.5269 67.9231 C 81.2123 68.1665 79.8977 68.2152 78.6318 68.3613 Z M 90.2196 48.6912 C 90.1709 48.0582 90.1709 47.5713 90.0736 47.0845 C 89.1972 42.2643 84.7665 39.5378 80.1411 40.6089 C 75.6131 41.6314 72.6918 44.504 71.6207 49.0807 C 70.7443 52.8784 72.5944 56.7248 76.1 58.2828 C 78.7779 59.4513 81.4557 59.3053 84.0362 57.9907 C 87.8826 55.9944 89.9762 52.8784 90.2196 48.6912 Z" stroke-linecap="round" />
</g>
</g>
</g>
</svg>