<?xml version="1.0" encoding="UTF-8" standalone="no" ?>
<!DOCTYPE svg PUBLIC "-//W3C//DTD SVG 1.1//EN" "http://www.w3.org/Graphics/SVG/1.1/DTD/svg11.dtd">
<svg xmlns="http://www.w3.org/2000/svg" xmlns:xlink="http://www.w3.org/1999/xlink" version="1.1" width="150" height="150" viewBox="0 0 150 150" xml:space="preserve">
<!-- Created with SVG Stack Editor - https://svgstack.com -->
<defs>
</defs>
<rect x="0" y="0" width="100%" height="100%" fill="transparent"></rect>
<g transform="matrix(1.43 0 0 1.43 75 75)"  >
<g style=""   >
		<g transform="matrix(1 0 0 1 -0.29 -2.23)" id="path_0"  >
<path style="stroke: none; stroke-width: 1; stroke-dasharray: none; stroke-linecap: butt; stroke-dashoffset: 0; stroke-linejoin: miter; stroke-miterlimit: 4; fill: rgb(255,210,30); fill-rule: nonzero; opacity: 1;"  transform=" translate(-63.66, -61.35)" d="M 63.6581 102.316 C 74.5236 102.316 84.9441 97.9994 92.6272 90.3164 C 100.31 82.6333 104.627 72.2128 104.627 61.3473 C 104.627 50.4818 100.31 40.0613 92.6272 32.3783 C 84.9441 24.6952 74.5236 20.3789 63.6581 20.3789 C 52.7926 20.3789 42.3721 24.6952 34.6891 32.3783 C 27.006 40.0613 22.6897 50.4818 22.6897 61.3473 C 22.6897 72.2128 27.006 82.6333 34.6891 90.3164 C 42.3721 97.9994 52.7926 102.316 63.6581 102.316 Z" stroke-linecap="round" />
</g>
		<g transform="matrix(1 0 0 1 -0.29 -2.23)" id="path_1"  >
<path style="stroke: none; stroke-width: 1; stroke-dasharray: none; stroke-linecap: butt; stroke-dashoffset: 0; stroke-linejoin: miter; stroke-miterlimit: 4; fill: rgb(255,157,11); fill-rule: nonzero; opacity: 1;"  transform=" translate(-63.66, -61.35)" d="M 104.627 61.3473 C 104.627 39.0332 85.9722 20.3789 63.6581 20.3789 C 41.3439 20.3789 22.6897 39.0332 22.6897 61.3473 C 22.6897 83.6614 41.3439 102.316 63.6581 102.316 C 85.9722 102.316 104.627 83.6615 104.627 61.3473 Z M 17.9739 61.3473 C 17.9739 36.5019 39.0545 15.6631 63.6581 15.6631 C 88.5033 15.6631 109.342 36.7438 109.342 61.3473 C 109.342 86.23 88.5408 107.032 63.6581 107.032 C 38.7754 107.032 17.9739 86.23 17.9739 61.3473 Z" stroke-linecap="round" />
</g>
		<g transform="matrix(1 0 0 1 -0.87 -16.05)" id="path_2"  >
<path style="stroke: none; stroke-width: 1; stroke-dasharray: none; stroke-linecap: butt; stroke-dashoffset: 0; stroke-linejoin: miter; stroke-miterlimit: 4; fill: rgb(58,59,69); fill-rule: nonzero; opacity: 1;"  transform=" translate(-63.09, -47.53)" d="M 76.9684 50.2062 C 78.4775 50.7249 79.067 53.8138 80.5878 53.0121 C 81.6176 52.4653 82.4622 51.6255 83.0146 50.5987 C 83.5671 49.5719 83.8026 48.4044 83.6915 47.2437 C 83.5804 46.0831 83.1275 44.9815 82.3902 44.0782 C 81.653 43.1749 80.6644 42.5106 79.5495 42.1692 C 78.4347 41.8278 77.2436 41.8247 76.127 42.1603 C 75.0104 42.4959 74.0184 43.1551 73.2764 44.0545 C 72.5344 44.9539 72.0759 46.0532 71.9587 47.2132 C 71.8415 48.3733 72.071 49.542 72.6181 50.5717 C 73.3373 51.9274 75.6244 49.7228 76.9802 50.1944 L 76.9684 50.2062 Z M 49.2042 50.2062 C 47.6952 50.7249 47.0939 53.8138 45.5849 53.0121 C 44.555 52.4653 43.7105 51.6255 43.158 50.5987 C 42.6056 49.5719 42.37 48.4044 42.4812 47.2437 C 42.5923 46.0831 43.0451 44.9815 43.7824 44.0782 C 44.5197 43.1749 45.5083 42.5106 46.6231 42.1692 C 47.738 41.8278 48.929 41.8247 50.0457 42.1603 C 51.1623 42.4959 52.1543 43.1551 52.8963 44.0545 C 53.6382 44.9539 54.0968 46.0532 54.214 47.2132 C 54.3311 48.3733 54.1016 49.542 53.5545 50.5717 C 52.8354 51.9274 50.5364 49.7228 49.1924 50.1944 L 49.2042 50.2062 Z" stroke-linecap="round" />
</g>
		<g transform="matrix(1 0 0 1 -0.58 6.2)" id="path_3"  >
<path style="stroke: none; stroke-width: 1; stroke-dasharray: none; stroke-linecap: butt; stroke-dashoffset: 0; stroke-linejoin: miter; stroke-miterlimit: 4; fill: rgb(255,50,61); fill-rule: nonzero; opacity: 1;"  transform=" translate(-63.37, -69.77)" d="M 63.3634 78.489 C 74.9524 78.489 78.6897 68.1615 78.6897 62.8562 C 78.6897 60.0975 76.8388 60.9699 73.8678 62.4318 C 71.1209 63.7876 67.4308 65.6621 63.3752 65.6621 C 54.8985 65.6621 48.0489 57.5509 48.0489 62.8562 C 48.0489 68.1615 51.7743 78.489 63.3752 78.489 L 63.3634 78.489 Z" stroke-linecap="round" />
</g>
		<g transform="matrix(1 0 0 1 -0.59 4.84)" id="path_4"  >
<path style="stroke: none; stroke-width: 1; stroke-dasharray: none; stroke-linecap: butt; stroke-dashoffset: 0; stroke-linejoin: miter; stroke-miterlimit: 4; fill: rgb(58,59,69); fill-rule: evenodd; opacity: 1;"  transform=" translate(-63.36, -68.42)" d="M 54.4859 75.7892 C 55.108 74.525 55.9838 73.4026 57.0589 72.4918 C 58.1339 71.5811 59.3851 70.9016 60.7343 70.4957 C 61.2059 70.3543 61.6893 71.1678 62.1962 72.0048 C 62.6678 72.8065 63.1629 73.62 63.6581 73.62 C 64.1886 73.62 64.7192 72.8183 65.2261 72.0284 C 65.7566 71.2031 66.2754 70.4014 66.7823 70.5547 C 69.315 71.3587 71.4313 73.1238 72.677 75.4709 C 77.0745 72.0048 78.6897 66.3459 78.6897 62.8562 C 78.6897 60.0974 76.8387 60.9699 73.8678 62.4317 L 73.7027 62.5143 C 70.9794 63.8701 67.3482 65.6621 63.3634 65.6621 C 59.3785 65.6621 55.7592 63.8701 53.024 62.5143 C 49.9587 60.9934 48.037 60.0385 48.037 62.8562 C 48.037 66.452 49.7583 72.3585 54.4859 75.7892 Z" stroke-linecap="round" />
</g>
		<g transform="matrix(1 0 0 1 -10.32 16.21)" id="path_5"  >
<path style="stroke: none; stroke-width: 1; stroke-dasharray: none; stroke-linecap: butt; stroke-dashoffset: 0; stroke-linejoin: miter; stroke-miterlimit: 4; fill: rgb(255,157,11); fill-rule: nonzero; opacity: 1;"  transform=" translate(-53.64, -79.79)" d="M 91.3633 55.7471 C 92.3795 55.7471 93.3541 55.3435 94.0727 54.6249 C 94.7912 53.9063 95.1949 52.9318 95.1949 51.9156 C 95.1949 50.8994 94.7912 49.9248 94.0727 49.2062 C 93.3541 48.4877 92.3795 48.084 91.3633 48.084 C 90.3472 48.084 89.3726 48.4877 88.654 49.2062 C 87.9355 49.9248 87.5318 50.8994 87.5318 51.9156 C 87.5318 52.9318 87.9355 53.9063 88.654 54.6249 C 89.3726 55.3435 90.3472 55.7471 91.3633 55.7471 Z M 36.5423 55.7471 C 37.5585 55.7471 38.5331 55.3435 39.2516 54.6249 C 39.9702 53.9063 40.3739 52.9318 40.3739 51.9156 C 40.3739 50.8994 39.9702 49.9248 39.2516 49.2062 C 38.5331 48.4877 37.5585 48.084 36.5423 48.084 C 35.5261 48.084 34.5515 48.4877 33.833 49.2062 C 33.1144 49.9248 32.7107 50.8994 32.7107 51.9156 C 32.7107 52.9318 33.1144 53.9063 33.833 54.6249 C 34.5515 55.3435 35.5261 55.7471 36.5423 55.7471 Z M 28.6551 68.7156 C 26.7452 68.7156 25.0476 69.4937 23.8568 70.9202 C 22.8415 72.1744 22.2879 73.7394 22.2888 75.353 C 21.5465 75.1298 20.7768 75.0108 20.0017 74.9994 C 18.1743 74.9994 16.5238 75.6949 15.3566 76.9564 C 14.3153 78.0377 13.6588 79.4316 13.4884 80.9231 C 13.3179 82.4146 13.643 83.9207 14.4135 85.209 C 13.3701 86.0608 12.6299 87.227 12.3031 88.5337 C 12.0202 89.5947 11.7372 91.8347 13.2463 94.1219 C 12.6806 94.9916 12.344 95.9903 12.2677 97.025 C 12.1914 98.0597 12.378 99.0969 12.8101 100.04 C 14.0126 102.775 17.0189 104.921 22.8547 107.232 C 26.4741 108.67 29.7987 109.59 29.8223 109.601 C 34.0221 110.765 38.351 111.399 42.7082 111.488 C 49.6168 111.488 54.5566 109.366 57.3979 105.192 C 61.9722 98.484 61.3238 92.3417 55.3937 86.4234 C 52.128 83.1459 49.9469 78.324 49.4989 77.2629 C 48.5794 74.1269 46.1507 70.6373 42.1305 70.6373 C 41.061 70.6542 40.0109 70.9261 39.0677 71.4306 C 38.1244 71.935 37.3152 72.6573 36.7074 73.5375 C 35.5284 72.052 34.373 70.8848 33.3356 70.2128 C 31.9511 69.2756 30.3265 68.7559 28.6551 68.7156 Z M 28.6551 73.4314 C 29.2564 73.4314 29.9991 73.6907 30.8008 74.1977 C 33.3238 75.801 38.1692 84.1362 39.9495 87.3783 C 40.5389 88.4629 41.5646 88.9227 42.4724 88.9227 C 44.2998 88.9227 45.7145 87.1189 42.6492 84.82 C 38.0278 81.3657 39.6429 75.7185 41.8476 75.3766 C 41.9419 75.353 42.048 75.353 42.1305 75.353 C 44.1347 75.353 45.0189 78.8074 45.0189 78.8074 C 45.0189 78.8074 47.6126 85.3151 52.069 89.7716 C 56.5137 94.2162 56.7495 97.7884 53.5073 102.54 C 51.2909 105.782 47.0585 106.76 42.7082 106.76 C 38.2164 106.76 33.5949 105.699 31.013 105.039 C 30.8834 105.004 15.1562 100.559 17.1486 96.7863 C 17.4787 96.1497 18.0328 95.8903 18.7284 95.8903 C 21.5343 95.8903 26.6274 100.064 28.832 100.064 C 29.3154 100.064 29.6572 99.8634 29.8105 99.3564 C 30.7419 95.9964 15.5924 94.5817 16.8657 89.7244 C 17.1015 88.8638 17.7027 88.5219 18.5634 88.5219 C 22.2652 88.5219 30.5886 95.0415 32.3335 95.0415 C 32.4631 95.0415 32.5692 95.0061 32.6164 94.9236 C 33.4888 93.5088 33.0055 92.5185 26.8396 88.793 C 20.6972 85.0676 16.3705 82.8276 18.8227 80.1514 C 19.1057 79.8448 19.5065 79.7034 20.0017 79.7034 C 23.7389 79.7034 32.5692 87.7438 32.5692 87.7438 C 32.5692 87.7438 34.9507 90.2196 36.4008 90.2196 C 36.7309 90.2196 37.0139 90.1017 37.2025 89.7716 C 38.2164 88.0503 27.7002 80.0806 27.1107 76.7914 C 26.7099 74.5514 27.3937 73.4314 28.6551 73.4314 Z" stroke-linecap="round" />
</g>
		<g transform="matrix(1 0 0 1 -27.71 26.52)" id="path_6"  >
<path style="stroke: none; stroke-width: 1; stroke-dasharray: none; stroke-linecap: butt; stroke-dashoffset: 0; stroke-linejoin: miter; stroke-miterlimit: 4; fill: rgb(255,210,30); fill-rule: nonzero; opacity: 1;"  transform=" translate(-36.25, -90.1)" d="M 53.5074 102.54 C 56.7495 97.7768 56.5137 94.2045 52.0691 89.7599 C 47.6126 85.3153 45.019 78.7957 45.019 78.7957 C 45.019 78.7957 44.0522 75.0231 41.8476 75.3768 C 39.643 75.7304 38.0278 81.3658 42.6493 84.8201 C 47.259 88.2744 41.7297 90.6205 39.9495 87.3784 C 38.1811 84.1363 33.3238 75.8012 30.8009 74.1978 C 28.2897 72.6062 26.5213 73.4904 27.1107 76.7915 C 27.7002 80.0807 38.2282 88.0504 37.2025 89.7599 C 36.1769 91.493 32.5693 87.7439 32.5693 87.7439 C 32.5693 87.7439 21.2867 77.4753 18.8227 80.1515 C 16.3705 82.8277 20.6973 85.0677 26.8396 88.7932 C 33.0055 92.5186 33.4888 93.509 32.6164 94.9237 C 31.7322 96.3384 18.139 84.8673 16.8657 89.7363 C 15.5924 94.5818 30.7419 95.9848 29.8105 99.3448 C 28.8674 102.705 19.1293 93.002 17.1486 96.7746 C 15.1444 100.559 30.8834 105.004 31.0131 105.039 C 36.0825 106.359 48.992 109.154 53.5074 102.54 Z" stroke-linecap="round" />
</g>
		<g transform="matrix(1 0 0 1 27.71 26.53)" id="path_7"  >
<path style="stroke: none; stroke-width: 1; stroke-dasharray: none; stroke-linecap: butt; stroke-dashoffset: 0; stroke-linejoin: miter; stroke-miterlimit: 4; fill: rgb(255,157,11); fill-rule: nonzero; opacity: 1;"  transform=" translate(-91.67, -90.1)" d="M 99.2505 68.7156 C 101.16 68.7156 102.87 69.4937 104.049 70.9202 C 105.064 72.1744 105.618 73.7394 105.617 75.3531 C 106.363 75.1287 107.137 75.0097 107.916 74.9994 C 109.743 74.9994 111.394 75.6949 112.561 76.9564 C 113.602 78.0377 114.259 79.4317 114.429 80.9231 C 114.6 82.4146 114.274 83.9207 113.504 85.2091 C 114.543 86.0626 115.279 87.2285 115.603 88.5337 C 115.885 89.5947 116.168 91.8347 114.659 94.1219 C 115.225 94.9916 115.562 95.9903 115.638 97.025 C 115.714 98.0597 115.528 99.0969 115.096 100.04 C 113.893 102.775 110.887 104.921 105.063 107.232 C 101.432 108.67 98.107 109.59 98.0834 109.601 C 93.8835 110.765 89.5546 111.399 85.1975 111.488 C 78.2889 111.488 73.3491 109.366 70.5078 105.192 C 65.9335 98.484 66.5819 92.3417 72.512 86.4234 C 75.7895 83.1459 77.9705 78.324 78.4185 77.2629 C 79.3381 74.1269 81.755 70.6373 85.7752 70.6373 C 86.8447 70.6542 87.8947 70.9261 88.838 71.4306 C 89.7812 71.935 90.5904 72.6573 91.1983 73.5375 C 92.3773 72.052 93.5326 70.8848 94.5819 70.2128 C 95.963 69.2777 97.5832 68.7581 99.2505 68.7156 Z M 99.2505 73.4314 C 98.6493 73.4314 97.9183 73.6907 97.1049 74.1977 C 94.5937 75.8011 89.7364 84.1362 87.9562 87.3783 C 87.716 87.8409 87.3541 88.2292 86.9095 88.5013 C 86.4649 88.7735 85.9545 88.9192 85.4333 88.9227 C 83.6177 88.9227 82.1912 87.1189 85.2682 84.82 C 89.8779 81.3657 88.2627 75.7185 86.0581 75.3766 C 85.9646 75.3614 85.87 75.3535 85.7752 75.3531 C 83.771 75.3531 82.8867 78.8074 82.8867 78.8074 C 82.8867 78.8074 80.2931 85.3152 75.8484 89.7716 C 71.392 94.2162 71.1562 97.7884 74.4101 102.54 C 76.6148 105.782 80.859 106.76 85.1975 106.76 C 89.7011 106.76 94.3108 105.699 96.9044 105.039 C 97.0223 105.004 112.761 100.559 110.769 96.7863 C 110.427 96.1497 109.885 95.8903 109.189 95.8903 C 106.383 95.8903 101.278 100.064 99.0855 100.064 C 98.5903 100.064 98.2484 99.8634 98.107 99.3564 C 97.1638 95.9964 112.313 94.5817 111.04 89.7244 C 110.816 88.8638 110.215 88.5219 109.342 88.5219 C 105.64 88.5219 97.3171 95.0415 95.5722 95.0415 C 95.4543 95.0415 95.3482 95.0061 95.3011 94.9236 C 94.4286 93.5088 94.9002 92.5185 101.054 88.793 C 107.22 85.0676 111.547 82.8276 109.071 80.1514 C 108.8 79.8448 108.399 79.7034 107.916 79.7034 C 104.167 79.7034 95.3364 87.7438 95.3364 87.7438 C 95.3364 87.7438 92.955 90.2196 91.5166 90.2196 C 91.3546 90.2268 91.1937 90.1887 91.0521 90.1096 C 90.9105 90.0305 90.7937 89.9134 90.715 89.7716 C 89.6893 88.0503 100.205 80.0806 100.795 76.7914 C 101.196 74.5514 100.512 73.4314 99.2505 73.4314 Z" stroke-linecap="round" />
</g>
		<g transform="matrix(1 0 0 1 27.71 26.52)" id="path_8"  >
<path style="stroke: none; stroke-width: 1; stroke-dasharray: none; stroke-linecap: butt; stroke-dashoffset: 0; stroke-linejoin: miter; stroke-miterlimit: 4; fill: rgb(255,210,30); fill-rule: nonzero; opacity: 1;"  transform=" translate(-91.66, -90.1)" d="M 74.4101 102.54 C 71.168 97.7768 71.392 94.2045 75.8484 89.7599 C 80.293 85.3153 82.8867 78.7957 82.8867 78.7957 C 82.8867 78.7957 83.8535 75.0231 86.0699 75.3768 C 88.2627 75.7304 89.8779 81.3658 85.2682 84.8201 C 80.6467 88.2744 86.1878 90.6205 87.9562 87.3784 C 89.7364 84.1363 94.5937 75.8012 97.1048 74.1978 C 99.616 72.6062 101.396 73.4904 100.795 76.7915 C 100.205 80.0807 89.6893 88.0504 90.7149 89.7599 C 91.7288 91.493 95.3364 87.7439 95.3364 87.7439 C 95.3364 87.7439 106.631 77.4753 109.083 80.1515 C 111.535 82.8277 107.22 85.0677 101.066 88.7932 C 94.9002 92.5186 94.4286 93.509 95.2892 94.9237 C 96.1735 96.3384 109.767 84.8673 111.04 89.7363 C 112.313 94.5818 97.1756 95.9848 98.1069 99.3448 C 99.0501 102.705 108.776 93.002 110.769 96.7746 C 112.761 100.559 97.0341 105.004 96.9044 105.039 C 91.8231 106.359 78.9137 109.154 74.4101 102.54 Z" stroke-linecap="round" />
</g>
</g>
</g>
<g transform="matrix(1.43 0 0 1.43 75 75)"  >
<g style=""   >
		<g transform="matrix(1 0 0 1 -0.29 -2.23)" id="path_0"  >
<path style="stroke: none; stroke-width: 1; stroke-dasharray: none; stroke-linecap: butt; stroke-dashoffset: 0; stroke-linejoin: miter; stroke-miterlimit: 4; fill: rgb(255,210,30); fill-rule: nonzero; opacity: 1;"  transform=" translate(-63.66, -61.35)" d="M 63.6581 102.316 C 74.5236 102.316 84.9441 97.9994 92.6272 90.3164 C 100.31 82.6333 104.627 72.2128 104.627 61.3473 C 104.627 50.4818 100.31 40.0613 92.6272 32.3783 C 84.9441 24.6952 74.5236 20.3789 63.6581 20.3789 C 52.7926 20.3789 42.3721 24.6952 34.6891 32.3783 C 27.006 40.0613 22.6897 50.4818 22.6897 61.3473 C 22.6897 72.2128 27.006 82.6333 34.6891 90.3164 C 42.3721 97.9994 52.7926 102.316 63.6581 102.316 Z" stroke-linecap="round" />
</g>
		<g transform="matrix(1 0 0 1 -0.29 -2.23)" id="path_1"  >
<path style="stroke: none; stroke-width: 1; stroke-dasharray: none; stroke-linecap: butt; stroke-dashoffset: 0; stroke-linejoin: miter; stroke-miterlimit: 4; fill: rgb(255,157,11); fill-rule: nonzero; opacity: 1;"  transform=" translate(-63.66, -61.35)" d="M 104.627 61.3473 C 104.627 39.0332 85.9722 20.3789 63.6581 20.3789 C 41.3439 20.3789 22.6897 39.0332 22.6897 61.3473 C 22.6897 83.6614 41.3439 102.316 63.6581 102.316 C 85.9722 102.316 104.627 83.6615 104.627 61.3473 Z M 17.9739 61.3473 C 17.9739 36.5019 39.0545 15.6631 63.6581 15.6631 C 88.5033 15.6631 109.342 36.7438 109.342 61.3473 C 109.342 86.23 88.5408 107.032 63.6581 107.032 C 38.7754 107.032 17.9739 86.23 17.9739 61.3473 Z" stroke-linecap="round" />
</g>
		<g transform="matrix(1 0 0 1 -0.87 -16.05)" id="path_2"  >
<path style="stroke: none; stroke-width: 1; stroke-dasharray: none; stroke-linecap: butt; stroke-dashoffset: 0; stroke-linejoin: miter; stroke-miterlimit: 4; fill: rgb(58,59,69); fill-rule: nonzero; opacity: 1;"  transform=" translate(-63.09, -47.53)" d="M 76.9684 50.2062 C 78.4775 50.7249 79.067 53.8138 80.5878 53.0121 C 81.6176 52.4653 82.4622 51.6255 83.0146 50.5987 C 83.5671 49.5719 83.8026 48.4044 83.6915 47.2437 C 83.5804 46.0831 83.1275 44.9815 82.3902 44.0782 C 81.653 43.1749 80.6644 42.5106 79.5495 42.1692 C 78.4347 41.8278 77.2436 41.8247 76.127 42.1603 C 75.0104 42.4959 74.0184 43.1551 73.2764 44.0545 C 72.5344 44.9539 72.0759 46.0532 71.9587 47.2132 C 71.8415 48.3733 72.071 49.542 72.6181 50.5717 C 73.3373 51.9274 75.6244 49.7228 76.9802 50.1944 L 76.9684 50.2062 Z M 49.2042 50.2062 C 47.6952 50.7249 47.0939 53.8138 45.5849 53.0121 C 44.555 52.4653 43.7105 51.6255 43.158 50.5987 C 42.6056 49.5719 42.37 48.4044 42.4812 47.2437 C 42.5923 46.0831 43.0451 44.9815 43.7824 44.0782 C 44.5197 43.1749 45.5083 42.5106 46.6231 42.1692 C 47.738 41.8278 48.929 41.8247 50.0457 42.1603 C 51.1623 42.4959 52.1543 43.1551 52.8963 44.0545 C 53.6382 44.9539 54.0968 46.0532 54.214 47.2132 C 54.3311 48.3733 54.1016 49.542 53.5545 50.5717 C 52.8354 51.9274 50.5364 49.7228 49.1924 50.1944 L 49.2042 50.2062 Z" stroke-linecap="round" />
</g>
		<g transform="matrix(1 0 0 1 -0.58 6.2)" id="path_3"  >
<path style="stroke: none; stroke-width: 1; stroke-dasharray: none; stroke-linecap: butt; stroke-dashoffset: 0; stroke-linejoin: miter; stroke-miterlimit: 4; fill: rgb(255,50,61); fill-rule: nonzero; opacity: 1;"  transform=" translate(-63.37, -69.77)" d="M 63.3634 78.489 C 74.9524 78.489 78.6897 68.1615 78.6897 62.8562 C 78.6897 60.0975 76.8388 60.9699 73.8678 62.4318 C 71.1209 63.7876 67.4308 65.6621 63.3752 65.6621 C 54.8985 65.6621 48.0489 57.5509 48.0489 62.8562 C 48.0489 68.1615 51.7743 78.489 63.3752 78.489 L 63.3634 78.489 Z" stroke-linecap="round" />
</g>
		<g transform="matrix(1 0 0 1 -0.59 4.84)" id="path_4"  >
<path style="stroke: none; stroke-width: 1; stroke-dasharray: none; stroke-linecap: butt; stroke-dashoffset: 0; stroke-linejoin: miter; stroke-miterlimit: 4; fill: rgb(58,59,69); fill-rule: evenodd; opacity: 1;"  transform=" translate(-63.36, -68.42)" d="M 54.4859 75.7892 C 55.108 74.525 55.9838 73.4026 57.0589 72.4918 C 58.1339 71.5811 59.3851 70.9016 60.7343 70.4957 C 61.2059 70.3543 61.6893 71.1678 62.1962 72.0048 C 62.6678 72.8065 63.1629 73.62 63.6581 73.62 C 64.1886 73.62 64.7192 72.8183 65.2261 72.0284 C 65.7566 71.2031 66.2754 70.4014 66.7823 70.5547 C 69.315 71.3587 71.4313 73.1238 72.677 75.4709 C 77.0745 72.0048 78.6897 66.3459 78.6897 62.8562 C 78.6897 60.0974 76.8387 60.9699 73.8678 62.4317 L 73.7027 62.5143 C 70.9794 63.8701 67.3482 65.6621 63.3634 65.6621 C 59.3785 65.6621 55.7592 63.8701 53.024 62.5143 C 49.9587 60.9934 48.037 60.0385 48.037 62.8562 C 48.037 66.452 49.7583 72.3585 54.4859 75.7892 Z" stroke-linecap="round" />
</g>
		<g transform="matrix(1 0 0 1 -10.32 16.21)" id="path_5"  >
<path style="stroke: none; stroke-width: 1; stroke-dasharray: none; stroke-linecap: butt; stroke-dashoffset: 0; stroke-linejoin: miter; stroke-miterlimit: 4; fill: rgb(255,157,11); fill-rule: nonzero; opacity: 1;"  transform=" translate(-53.64, -79.79)" d="M 91.3633 55.7471 C 92.3795 55.7471 93.3541 55.3435 94.0727 54.6249 C 94.7912 53.9063 95.1949 52.9318 95.1949 51.9156 C 95.1949 50.8994 94.7912 49.9248 94.0727 49.2062 C 93.3541 48.4877 92.3795 48.084 91.3633 48.084 C 90.3472 48.084 89.3726 48.4877 88.654 49.2062 C 87.9355 49.9248 87.5318 50.8994 87.5318 51.9156 C 87.5318 52.9318 87.9355 53.9063 88.654 54.6249 C 89.3726 55.3435 90.3472 55.7471 91.3633 55.7471 Z M 36.5423 55.7471 C 37.5585 55.7471 38.5331 55.3435 39.2516 54.6249 C 39.9702 53.9063 40.3739 52.9318 40.3739 51.9156 C 40.3739 50.8994 39.9702 49.9248 39.2516 49.2062 C 38.5331 48.4877 37.5585 48.084 36.5423 48.084 C 35.5261 48.084 34.5515 48.4877 33.833 49.2062 C 33.1144 49.9248 32.7107 50.8994 32.7107 51.9156 C 32.7107 52.9318 33.1144 53.9063 33.833 54.6249 C 34.5515 55.3435 35.5261 55.7471 36.5423 55.7471 Z M 28.6551 68.7156 C 26.7452 68.7156 25.0476 69.4937 23.8568 70.9202 C 22.8415 72.1744 22.2879 73.7394 22.2888 75.353 C 21.5465 75.1298 20.7768 75.0108 20.0017 74.9994 C 18.1743 74.9994 16.5238 75.6949 15.3566 76.9564 C 14.3153 78.0377 13.6588 79.4316 13.4884 80.9231 C 13.3179 82.4146 13.643 83.9207 14.4135 85.209 C 13.3701 86.0608 12.6299 87.227 12.3031 88.5337 C 12.0202 89.5947 11.7372 91.8347 13.2463 94.1219 C 12.6806 94.9916 12.344 95.9903 12.2677 97.025 C 12.1914 98.0597 12.378 99.0969 12.8101 100.04 C 14.0126 102.775 17.0189 104.921 22.8547 107.232 C 26.4741 108.67 29.7987 109.59 29.8223 109.601 C 34.0221 110.765 38.351 111.399 42.7082 111.488 C 49.6168 111.488 54.5566 109.366 57.3979 105.192 C 61.9722 98.484 61.3238 92.3417 55.3937 86.4234 C 52.128 83.1459 49.9469 78.324 49.4989 77.2629 C 48.5794 74.1269 46.1507 70.6373 42.1305 70.6373 C 41.061 70.6542 40.0109 70.9261 39.0677 71.4306 C 38.1244 71.935 37.3152 72.6573 36.7074 73.5375 C 35.5284 72.052 34.373 70.8848 33.3356 70.2128 C 31.9511 69.2756 30.3265 68.7559 28.6551 68.7156 Z M 28.6551 73.4314 C 29.2564 73.4314 29.9991 73.6907 30.8008 74.1977 C 33.3238 75.801 38.1692 84.1362 39.9495 87.3783 C 40.5389 88.4629 41.5646 88.9227 42.4724 88.9227 C 44.2998 88.9227 45.7145 87.1189 42.6492 84.82 C 38.0278 81.3657 39.6429 75.7185 41.8476 75.3766 C 41.9419 75.353 42.048 75.353 42.1305 75.353 C 44.1347 75.353 45.0189 78.8074 45.0189 78.8074 C 45.0189 78.8074 47.6126 85.3151 52.069 89.7716 C 56.5137 94.2162 56.7495 97.7884 53.5073 102.54 C 51.2909 105.782 47.0585 106.76 42.7082 106.76 C 38.2164 106.76 33.5949 105.699 31.013 105.039 C 30.8834 105.004 15.1562 100.559 17.1486 96.7863 C 17.4787 96.1497 18.0328 95.8903 18.7284 95.8903 C 21.5343 95.8903 26.6274 100.064 28.832 100.064 C 29.3154 100.064 29.6572 99.8634 29.8105 99.3564 C 30.7419 95.9964 15.5924 94.5817 16.8657 89.7244 C 17.1015 88.8638 17.7027 88.5219 18.5634 88.5219 C 22.2652 88.5219 30.5886 95.0415 32.3335 95.0415 C 32.4631 95.0415 32.5692 95.0061 32.6164 94.9236 C 33.4888 93.5088 33.0055 92.5185 26.8396 88.793 C 20.6972 85.0676 16.3705 82.8276 18.8227 80.1514 C 19.1057 79.8448 19.5065 79.7034 20.0017 79.7034 C 23.7389 79.7034 32.5692 87.7438 32.5692 87.7438 C 32.5692 87.7438 34.9507 90.2196 36.4008 90.2196 C 36.7309 90.2196 37.0139 90.1017 37.2025 89.7716 C 38.2164 88.0503 27.7002 80.0806 27.1107 76.7914 C 26.7099 74.5514 27.3937 73.4314 28.6551 73.4314 Z" stroke-linecap="round" />
</g>
		<g transform="matrix(1 0 0 1 -27.71 26.52)" id="path_6"  >
<path style="stroke: none; stroke-width: 1; stroke-dasharray: none; stroke-linecap: butt; stroke-dashoffset: 0; stroke-linejoin: miter; stroke-miterlimit: 4; fill: rgb(255,210,30); fill-rule: nonzero; opacity: 1;"  transform=" translate(-36.25, -90.1)" d="M 53.5074 102.54 C 56.7495 97.7768 56.5137 94.2045 52.0691 89.7599 C 47.6126 85.3153 45.019 78.7957 45.019 78.7957 C 45.019 78.7957 44.0522 75.0231 41.8476 75.3768 C 39.643 75.7304 38.0278 81.3658 42.6493 84.8201 C 47.259 88.2744 41.7297 90.6205 39.9495 87.3784 C 38.1811 84.1363 33.3238 75.8012 30.8009 74.1978 C 28.2897 72.6062 26.5213 73.4904 27.1107 76.7915 C 27.7002 80.0807 38.2282 88.0504 37.2025 89.7599 C 36.1769 91.493 32.5693 87.7439 32.5693 87.7439 C 32.5693 87.7439 21.2867 77.4753 18.8227 80.1515 C 16.3705 82.8277 20.6973 85.0677 26.8396 88.7932 C 33.0055 92.5186 33.4888 93.509 32.6164 94.9237 C 31.7322 96.3384 18.139 84.8673 16.8657 89.7363 C 15.5924 94.5818 30.7419 95.9848 29.8105 99.3448 C 28.8674 102.705 19.1293 93.002 17.1486 96.7746 C 15.1444 100.559 30.8834 105.004 31.0131 105.039 C 36.0825 106.359 48.992 109.154 53.5074 102.54 Z" stroke-linecap="round" />
</g>
		<g transform="matrix(1 0 0 1 27.71 26.53)" id="path_7"  >
<path style="stroke: none; stroke-width: 1; stroke-dasharray: none; stroke-linecap: butt; stroke-dashoffset: 0; stroke-linejoin: miter; stroke-miterlimit: 4; fill: rgb(255,157,11); fill-rule: nonzero; opacity: 1;"  transform=" translate(-91.67, -90.1)" d="M 99.2505 68.7156 C 101.16 68.7156 102.87 69.4937 104.049 70.9202 C 105.064 72.1744 105.618 73.7394 105.617 75.3531 C 106.363 75.1287 107.137 75.0097 107.916 74.9994 C 109.743 74.9994 111.394 75.6949 112.561 76.9564 C 113.602 78.0377 114.259 79.4317 114.429 80.9231 C 114.6 82.4146 114.274 83.9207 113.504 85.2091 C 114.543 86.0626 115.279 87.2285 115.603 88.5337 C 115.885 89.5947 116.168 91.8347 114.659 94.1219 C 115.225 94.9916 115.562 95.9903 115.638 97.025 C 115.714 98.0597 115.528 99.0969 115.096 100.04 C 113.893 102.775 110.887 104.921 105.063 107.232 C 101.432 108.67 98.107 109.59 98.0834 109.601 C 93.8835 110.765 89.5546 111.399 85.1975 111.488 C 78.2889 111.488 73.3491 109.366 70.5078 105.192 C 65.9335 98.484 66.5819 92.3417 72.512 86.4234 C 75.7895 83.1459 77.9705 78.324 78.4185 77.2629 C 79.3381 74.1269 81.755 70.6373 85.7752 70.6373 C 86.8447 70.6542 87.8947 70.9261 88.838 71.4306 C 89.7812 71.935 90.5904 72.6573 91.1983 73.5375 C 92.3773 72.052 93.5326 70.8848 94.5819 70.2128 C 95.963 69.2777 97.5832 68.7581 99.2505 68.7156 Z M 99.2505 73.4314 C 98.6493 73.4314 97.9183 73.6907 97.1049 74.1977 C 94.5937 75.8011 89.7364 84.1362 87.9562 87.3783 C 87.716 87.8409 87.3541 88.2292 86.9095 88.5013 C 86.4649 88.7735 85.9545 88.9192 85.4333 88.9227 C 83.6177 88.9227 82.1912 87.1189 85.2682 84.82 C 89.8779 81.3657 88.2627 75.7185 86.0581 75.3766 C 85.9646 75.3614 85.87 75.3535 85.7752 75.3531 C 83.771 75.3531 82.8867 78.8074 82.8867 78.8074 C 82.8867 78.8074 80.2931 85.3152 75.8484 89.7716 C 71.392 94.2162 71.1562 97.7884 74.4101 102.54 C 76.6148 105.782 80.859 106.76 85.1975 106.76 C 89.7011 106.76 94.3108 105.699 96.9044 105.039 C 97.0223 105.004 112.761 100.559 110.769 96.7863 C 110.427 96.1497 109.885 95.8903 109.189 95.8903 C 106.383 95.8903 101.278 100.064 99.0855 100.064 C 98.5903 100.064 98.2484 99.8634 98.107 99.3564 C 97.1638 95.9964 112.313 94.5817 111.04 89.7244 C 110.816 88.8638 110.215 88.5219 109.342 88.5219 C 105.64 88.5219 97.3171 95.0415 95.5722 95.0415 C 95.4543 95.0415 95.3482 95.0061 95.3011 94.9236 C 94.4286 93.5088 94.9002 92.5185 101.054 88.793 C 107.22 85.0676 111.547 82.8276 109.071 80.1514 C 108.8 79.8448 108.399 79.7034 107.916 79.7034 C 104.167 79.7034 95.3364 87.7438 95.3364 87.7438 C 95.3364 87.7438 92.955 90.2196 91.5166 90.2196 C 91.3546 90.2268 91.1937 90.1887 91.0521 90.1096 C 90.9105 90.0305 90.7937 89.9134 90.715 89.7716 C 89.6893 88.0503 100.205 80.0806 100.795 76.7914 C 101.196 74.5514 100.512 73.4314 99.2505 73.4314 Z" stroke-linecap="round" />
</g>
		<g transform="matrix(1 0 0 1 27.71 26.52)" id="path_8"  >
<path style="stroke: none; stroke-width: 1; stroke-dasharray: none; stroke-linecap: butt; stroke-dashoffset: 0; stroke-linejoin: miter; stroke-miterlimit: 4; fill: rgb(255,210,30); fill-rule: nonzero; opacity: 1;"  transform=" translate(-91.66, -90.1)" d="M 74.4101 102.54 C 71.168 97.7768 71.392 94.2045 75.8484 89.7599 C 80.293 85.3153 82.8867 78.7957 82.8867 78.7957 C 82.8867 78.7957 83.8535 75.0231 86.0699 75.3768 C 88.2627 75.7304 89.8779 81.3658 85.2682 84.8201 C 80.6467 88.2744 86.1878 90.6205 87.9562 87.3784 C 89.7364 84.1363 94.5937 75.8012 97.1048 74.1978 C 99.616 72.6062 101.396 73.4904 100.795 76.7915 C 100.205 80.0807 89.6893 88.0504 90.7149 89.7599 C 91.7288 91.493 95.3364 87.7439 95.3364 87.7439 C 95.3364 87.7439 106.631 77.4753 109.083 80.1515 C 111.535 82.8277 107.22 85.0677 101.066 88.7932 C 94.9002 92.5186 94.4286 93.509 95.2892 94.9237 C 96.1735 96.3384 109.767 84.8673 111.04 89.7363 C 112.313 94.5818 97.1756 95.9848 98.1069 99.3448 C 99.0501 102.705 108.776 93.002 110.769 96.7746 C 112.761 100.559 97.0341 105.004 96.9044 105.039 C 91.8231 106.359 78.9137 109.154 74.4101 102.54 Z" stroke-linecap="round" />
</g>
</g>
</g>
</svg>