<?xml version="1.0" encoding="UTF-8" standalone="no" ?>
<!DOCTYPE svg PUBLIC "-//W3C//DTD SVG 1.1//EN" "http://www.w3.org/Graphics/SVG/1.1/DTD/svg11.dtd">
<svg xmlns="http://www.w3.org/2000/svg" xmlns:xlink="http://www.w3.org/1999/xlink" version="1.1" width="150" height="150" viewBox="0 0 150 150" xml:space="preserve">
<!-- Created with SVG Stack Editor - https://svgstack.com -->
<defs>
</defs>
<rect x="0" y="0" width="100%" height="100%" fill="transparent"></rect>
<g transform="matrix(1.49 0 0 1.49 75 75)"  >
<g style=""   >
		<g transform="matrix(1 0 0 1 -12.92 -12.58)" id="path_0"  >
<linearGradient id="SVGID_paint0_linear_790_3246_1" gradientUnits="userSpaceOnUse" gradientTransform="matrix(1 0 0 1 0 0)"  x1="9.60996" y1="8.94811" x2="59.1669" y2="58.0107">
<stop offset="0%" style="stop-color:rgb(56,126,184);stop-opacity: 1"/>
<stop offset="100%" style="stop-color:rgb(54,105,148);stop-opacity: 1"/>
</linearGradient>
<path style="stroke: none; stroke-width: 1; stroke-dasharray: none; stroke-linecap: butt; stroke-dashoffset: 0; stroke-linejoin: miter; stroke-miterlimit: 4; fill: url(#SVGID_paint0_linear_790_3246_1); fill-rule: nonzero; opacity: 1;"  transform=" translate(-37.08, -37.16)" d="M 49.6397 0.000488281 C 24.2535 0.000488281 25.8385 11.0095 25.8385 11.0095 L 25.8667 22.4151 L 50.0924 22.4151 L 50.0924 25.8394 L 16.2447 25.8394 C 16.2447 25.8394 0 23.9971 0 49.6116 C 0 75.2269 14.1788 74.3185 14.1788 74.3185 L 22.6406 74.3185 L 22.6406 62.432 C 22.6406 62.432 22.1844 48.2532 36.593 48.2532 L 60.6205 48.2532 C 60.6205 48.2532 74.1199 48.4713 74.1199 35.2065 L 74.1199 13.2739 C 74.1199 13.2739 76.1702 0.000488281 49.6397 0.000488281 Z M 36.2817 7.67056 C 36.8542 7.67004 37.4211 7.78242 37.9501 8.00125 C 38.4791 8.22009 38.9598 8.54109 39.3646 8.94589 C 39.7693 9.35068 40.0903 9.83133 40.3092 10.3603 C 40.528 10.8893 40.6404 11.4563 40.6399 12.0287 C 40.6404 12.6012 40.528 13.1681 40.3092 13.6971 C 40.0903 14.2261 39.7693 14.7068 39.3646 15.1116 C 38.9598 15.5164 38.4791 15.8374 37.9501 16.0562 C 37.4211 16.275 36.8542 16.3874 36.2817 16.3869 C 35.7092 16.3874 35.1423 16.275 34.6133 16.0562 C 34.0843 15.8374 33.6037 15.5164 33.1989 15.1116 C 32.7941 14.7068 32.4731 14.2261 32.2542 13.6971 C 32.0354 13.1681 31.923 12.6012 31.9235 12.0287 C 31.923 11.4563 32.0354 10.8893 32.2542 10.3603 C 32.4731 9.83133 32.7941 9.35068 33.1989 8.94589 C 33.6037 8.54109 34.0843 8.22009 34.6133 8.00125 C 35.1423 7.78242 35.7092 7.67004 36.2817 7.67056 Z" stroke-linecap="round" />
</g>
		<g transform="matrix(1 0 0 1 12.92 12.58)" id="path_1"  >
<linearGradient id="SVGID_paint1_linear_790_3246_2" gradientUnits="userSpaceOnUse" gradientTransform="matrix(1 0 0 1 0 0)"  x1="40.0281" y1="40.4532" x2="93.2466" y2="90.7623">
<stop offset="0%" style="stop-color:rgb(255,224,82);stop-opacity: 1"/>
<stop offset="100%" style="stop-color:rgb(255,195,49);stop-opacity: 1"/>
</linearGradient>
<path style="stroke: none; stroke-width: 1; stroke-dasharray: none; stroke-linecap: butt; stroke-dashoffset: 0; stroke-linejoin: miter; stroke-miterlimit: 4; fill: url(#SVGID_paint1_linear_790_3246_2); fill-rule: nonzero; opacity: 1;"  transform=" translate(-62.92, -62.32)" d="M 50.3607 99.4806 C 75.747 99.4806 74.1619 88.4715 74.1619 88.4715 L 74.1337 77.0663 L 49.9076 77.0663 L 49.9076 73.642 L 83.7553 73.642 C 83.7553 73.642 100 75.4843 100 49.869 C 100 24.254 85.8213 25.1624 85.8213 25.1624 L 77.3594 25.1624 L 77.3594 37.0486 C 77.3594 37.0486 77.8156 51.2273 63.407 51.2273 L 39.3795 51.2273 C 39.3795 51.2273 25.8801 51.0092 25.8801 64.2745 L 25.8801 86.2075 C 25.8801 86.2075 23.8302 99.4806 50.3603 99.4806 L 50.3607 99.4806 Z M 63.7187 91.8112 C 63.1462 91.8118 62.5793 91.6994 62.0503 91.4806 C 61.5213 91.2617 61.0407 90.9407 60.6359 90.5359 C 60.2311 90.1311 59.9101 89.6505 59.6912 89.1215 C 59.4724 88.5925 59.36 88.0255 59.3605 87.4531 C 59.36 86.8806 59.4723 86.3136 59.6911 85.7845 C 59.9099 85.2555 60.2309 84.7748 60.6357 84.37 C 61.0405 83.9651 61.5212 83.6441 62.0502 83.4252 C 62.5792 83.2064 63.1462 83.094 63.7187 83.0945 C 64.2912 83.094 64.8581 83.2064 65.3871 83.4252 C 65.9161 83.644 66.3968 83.965 66.8015 84.3698 C 67.2063 84.7746 67.5273 85.2553 67.7462 85.7843 C 67.965 86.3133 68.0774 86.8802 68.0769 87.4527 C 68.0774 88.0251 67.965 88.5921 67.7462 89.1211 C 67.5273 89.6501 67.2063 90.1307 66.8015 90.5355 C 66.3968 90.9403 65.9161 91.2613 65.3871 91.4802 C 64.8581 91.699 64.2912 91.8114 63.7187 91.8109 L 63.7187 91.8112 Z" stroke-linecap="round" />
</g>
</g>
</g>
<g transform="matrix(1.49 0 0 1.49 75 75)"  >
<g style=""   >
		<g transform="matrix(1 0 0 1 -12.92 -12.58)" id="path_0"  >
<linearGradient id="SVGID_paint0_linear_790_3246_1" gradientUnits="userSpaceOnUse" gradientTransform="matrix(1 0 0 1 0 0)"  x1="9.60996" y1="8.94811" x2="59.1669" y2="58.0107">
<stop offset="0%" style="stop-color:rgb(56,126,184);stop-opacity: 1"/>
<stop offset="100%" style="stop-color:rgb(54,105,148);stop-opacity: 1"/>
</linearGradient>
<path style="stroke: none; stroke-width: 1; stroke-dasharray: none; stroke-linecap: butt; stroke-dashoffset: 0; stroke-linejoin: miter; stroke-miterlimit: 4; fill: url(#SVGID_paint0_linear_790_3246_1); fill-rule: nonzero; opacity: 1;"  transform=" translate(-37.08, -37.16)" d="M 49.6397 0.000488281 C 24.2535 0.000488281 25.8385 11.0095 25.8385 11.0095 L 25.8667 22.4151 L 50.0924 22.4151 L 50.0924 25.8394 L 16.2447 25.8394 C 16.2447 25.8394 0 23.9971 0 49.6116 C 0 75.2269 14.1788 74.3185 14.1788 74.3185 L 22.6406 74.3185 L 22.6406 62.432 C 22.6406 62.432 22.1844 48.2532 36.593 48.2532 L 60.6205 48.2532 C 60.6205 48.2532 74.1199 48.4713 74.1199 35.2065 L 74.1199 13.2739 C 74.1199 13.2739 76.1702 0.000488281 49.6397 0.000488281 Z M 36.2817 7.67056 C 36.8542 7.67004 37.4211 7.78242 37.9501 8.00125 C 38.4791 8.22009 38.9598 8.54109 39.3646 8.94589 C 39.7693 9.35068 40.0903 9.83133 40.3092 10.3603 C 40.528 10.8893 40.6404 11.4563 40.6399 12.0287 C 40.6404 12.6012 40.528 13.1681 40.3092 13.6971 C 40.0903 14.2261 39.7693 14.7068 39.3646 15.1116 C 38.9598 15.5164 38.4791 15.8374 37.9501 16.0562 C 37.4211 16.275 36.8542 16.3874 36.2817 16.3869 C 35.7092 16.3874 35.1423 16.275 34.6133 16.0562 C 34.0843 15.8374 33.6037 15.5164 33.1989 15.1116 C 32.7941 14.7068 32.4731 14.2261 32.2542 13.6971 C 32.0354 13.1681 31.923 12.6012 31.9235 12.0287 C 31.923 11.4563 32.0354 10.8893 32.2542 10.3603 C 32.4731 9.83133 32.7941 9.35068 33.1989 8.94589 C 33.6037 8.54109 34.0843 8.22009 34.6133 8.00125 C 35.1423 7.78242 35.7092 7.67004 36.2817 7.67056 Z" stroke-linecap="round" />
</g>
		<g transform="matrix(1 0 0 1 12.92 12.58)" id="path_1"  >
<linearGradient id="SVGID_paint1_linear_790_3246_2" gradientUnits="userSpaceOnUse" gradientTransform="matrix(1 0 0 1 0 0)"  x1="40.0281" y1="40.4532" x2="93.2466" y2="90.7623">
<stop offset="0%" style="stop-color:rgb(255,224,82);stop-opacity: 1"/>
<stop offset="100%" style="stop-color:rgb(255,195,49);stop-opacity: 1"/>
</linearGradient>
<path style="stroke: none; stroke-width: 1; stroke-dasharray: none; stroke-linecap: butt; stroke-dashoffset: 0; stroke-linejoin: miter; stroke-miterlimit: 4; fill: url(#SVGID_paint1_linear_790_3246_2); fill-rule: nonzero; opacity: 1;"  transform=" translate(-62.92, -62.32)" d="M 50.3607 99.4806 C 75.747 99.4806 74.1619 88.4715 74.1619 88.4715 L 74.1337 77.0663 L 49.9076 77.0663 L 49.9076 73.642 L 83.7553 73.642 C 83.7553 73.642 100 75.4843 100 49.869 C 100 24.254 85.8213 25.1624 85.8213 25.1624 L 77.3594 25.1624 L 77.3594 37.0486 C 77.3594 37.0486 77.8156 51.2273 63.407 51.2273 L 39.3795 51.2273 C 39.3795 51.2273 25.8801 51.0092 25.8801 64.2745 L 25.8801 86.2075 C 25.8801 86.2075 23.8302 99.4806 50.3603 99.4806 L 50.3607 99.4806 Z M 63.7187 91.8112 C 63.1462 91.8118 62.5793 91.6994 62.0503 91.4806 C 61.5213 91.2617 61.0407 90.9407 60.6359 90.5359 C 60.2311 90.1311 59.9101 89.6505 59.6912 89.1215 C 59.4724 88.5925 59.36 88.0255 59.3605 87.4531 C 59.36 86.8806 59.4723 86.3136 59.6911 85.7845 C 59.9099 85.2555 60.2309 84.7748 60.6357 84.37 C 61.0405 83.9651 61.5212 83.6441 62.0502 83.4252 C 62.5792 83.2064 63.1462 83.094 63.7187 83.0945 C 64.2912 83.094 64.8581 83.2064 65.3871 83.4252 C 65.9161 83.644 66.3968 83.965 66.8015 84.3698 C 67.2063 84.7746 67.5273 85.2553 67.7462 85.7843 C 67.965 86.3133 68.0774 86.8802 68.0769 87.4527 C 68.0774 88.0251 67.965 88.5921 67.7462 89.1211 C 67.5273 89.6501 67.2063 90.1307 66.8015 90.5355 C 66.3968 90.9403 65.9161 91.2613 65.3871 91.4802 C 64.8581 91.699 64.2912 91.8114 63.7187 91.8109 L 63.7187 91.8112 Z" stroke-linecap="round" />
</g>
</g>
</g>
</svg>