<?xml version="1.0" encoding="UTF-8" standalone="no" ?>
<!DOCTYPE svg PUBLIC "-//W3C//DTD SVG 1.1//EN" "http://www.w3.org/Graphics/SVG/1.1/DTD/svg11.dtd">
<svg xmlns="http://www.w3.org/2000/svg" xmlns:xlink="http://www.w3.org/1999/xlink" version="1.1" width="150" height="150" viewBox="0 0 150 150" xml:space="preserve">
<!-- Created with SVG Stack Editor - https://svgstack.com -->
<defs>
</defs>
<rect x="0" y="0" width="100%" height="100%" fill="transparent"></rect>
<g transform="matrix(1.67 0 0 1.67 75 75)"  >
<g style=""   >
		<g transform="matrix(1 0 0 1 0 0)" id="path_0"  >
<path style="stroke: none; stroke-width: 1; stroke-dasharray: none; stroke-linecap: butt; stroke-dashoffset: 0; stroke-linejoin: miter; stroke-miterlimit: 4; fill: rgb(238,76,44); fill-rule: nonzero; opacity: 1;"  transform=" translate(-49.65, -50.3)" d="M 75.5 31.7991 L 68.9 38.3992 C 79.7 49.1992 79.7 66.5992 68.9 77.1992 C 58.1 87.9992 40.7 87.9992 30.1 77.1992 C 19.3 66.3992 19.3 48.9992 30.1 38.3992 L 47.2 21.2991 L 49.6 18.8992 L 49.6 5.99915 L 23.8 31.7991 C 9.4 46.1991 9.4 69.3991 23.8 83.7991 C 38.2 98.1991 61.4 98.1991 75.5 83.7991 C 89.9 69.2991 89.9 46.1991 75.5 31.7991 Z" stroke-linecap="round" />
</g>
		<g transform="matrix(1 0 0 1 12.95 -24.9)" id="path_1"  >
<path style="stroke: none; stroke-width: 1; stroke-dasharray: none; stroke-linecap: butt; stroke-dashoffset: 0; stroke-linejoin: miter; stroke-miterlimit: 4; fill: rgb(238,76,44); fill-rule: nonzero; opacity: 1;"  transform=" translate(-62.6, -25.4)" d="M 62.5998 30.1988 C 65.2508 30.1988 67.3998 28.0498 67.3998 25.3988 C 67.3998 22.7478 65.2508 20.5988 62.5998 20.5988 C 59.9488 20.5988 57.7998 22.7478 57.7998 25.3988 C 57.7998 28.0498 59.9488 30.1988 62.5998 30.1988 Z" stroke-linecap="round" />
</g>
</g>
</g>
<g transform="matrix(1.67 0 0 1.67 75 75)"  >
<g style=""   >
		<g transform="matrix(1 0 0 1 0 0)" id="path_0"  >
<path style="stroke: none; stroke-width: 1; stroke-dasharray: none; stroke-linecap: butt; stroke-dashoffset: 0; stroke-linejoin: miter; stroke-miterlimit: 4; fill: rgb(238,76,44); fill-rule: nonzero; opacity: 1;"  transform=" translate(-49.65, -50.3)" d="M 75.5 31.7991 L 68.9 38.3992 C 79.7 49.1992 79.7 66.5992 68.9 77.1992 C 58.1 87.9992 40.7 87.9992 30.1 77.1992 C 19.3 66.3992 19.3 48.9992 30.1 38.3992 L 47.2 21.2991 L 49.6 18.8992 L 49.6 5.99915 L 23.8 31.7991 C 9.4 46.1991 9.4 69.3991 23.8 83.7991 C 38.2 98.1991 61.4 98.1991 75.5 83.7991 C 89.9 69.2991 89.9 46.1991 75.5 31.7991 Z" stroke-linecap="round" />
</g>
		<g transform="matrix(1 0 0 1 12.95 -24.9)" id="path_1"  >
<path style="stroke: none; stroke-width: 1; stroke-dasharray: none; stroke-linecap: butt; stroke-dashoffset: 0; stroke-linejoin: miter; stroke-miterlimit: 4; fill: rgb(238,76,44); fill-rule: nonzero; opacity: 1;"  transform=" translate(-62.6, -25.4)" d="M 62.5998 30.1988 C 65.2508 30.1988 67.3998 28.0498 67.3998 25.3988 C 67.3998 22.7478 65.2508 20.5988 62.5998 20.5988 C 59.9488 20.5988 57.7998 22.7478 57.7998 25.3988 C 57.7998 28.0498 59.9488 30.1988 62.5998 30.1988 Z" stroke-linecap="round" />
</g>
</g>
</g>
</svg>